solid OpenSCAD_Model
  facet normal -0 0 1
    outer loop
      vertex 0 35 5
      vertex 14 0 5
      vertex 14 35 5
    endloop
  endfacet
  facet normal 0 0 1
    outer loop
      vertex 14 0 5
      vertex 0 35 5
      vertex 0 0 5
    endloop
  endfacet
  facet normal 0 0 -1
    outer loop
      vertex 0 0 0
      vertex 14 35 0
      vertex 14 0 0
    endloop
  endfacet
  facet normal -0 0 -1
    outer loop
      vertex 14 35 0
      vertex 0 0 0
      vertex 0 35 0
    endloop
  endfacet
  facet normal 0 -1 0
    outer loop
      vertex 0 0 0
      vertex 14 0 5
      vertex 0 0 5
    endloop
  endfacet
  facet normal 0 -1 -0
    outer loop
      vertex 14 0 5
      vertex 0 0 0
      vertex 14 0 0
    endloop
  endfacet
  facet normal 1 -0 0
    outer loop
      vertex 14 0 5
      vertex 14 35 0
      vertex 14 35 5
    endloop
  endfacet
  facet normal 1 0 0
    outer loop
      vertex 14 35 0
      vertex 14 0 5
      vertex 14 0 0
    endloop
  endfacet
  facet normal 0 1 -0
    outer loop
      vertex 14 35 0
      vertex 0 35 5
      vertex 14 35 5
    endloop
  endfacet
  facet normal 0 1 0
    outer loop
      vertex 0 35 5
      vertex 14 35 0
      vertex 0 35 0
    endloop
  endfacet
  facet normal -1 0 0
    outer loop
      vertex 0 0 0
      vertex 0 35 5
      vertex 0 35 0
    endloop
  endfacet
  facet normal -1 -0 0
    outer loop
      vertex 0 35 5
      vertex 0 0 0
      vertex 0 0 5
    endloop
  endfacet
endsolid OpenSCAD_Model
