solid OpenSCAD_Model
  facet normal -0 0 1
    outer loop
      vertex 0 70 5
      vertex 172 0 5
      vertex 172 70 5
    endloop
  endfacet
  facet normal 0 0 1
    outer loop
      vertex 172 0 5
      vertex 0 70 5
      vertex 0 0 5
    endloop
  endfacet
  facet normal 0 0 -1
    outer loop
      vertex 0 0 0
      vertex 172 70 0
      vertex 172 0 0
    endloop
  endfacet
  facet normal -0 0 -1
    outer loop
      vertex 172 70 0
      vertex 0 0 0
      vertex 0 70 0
    endloop
  endfacet
  facet normal 0 -1 0
    outer loop
      vertex 0 0 0
      vertex 172 0 5
      vertex 0 0 5
    endloop
  endfacet
  facet normal 0 -1 -0
    outer loop
      vertex 172 0 5
      vertex 0 0 0
      vertex 172 0 0
    endloop
  endfacet
  facet normal 1 -0 0
    outer loop
      vertex 172 0 5
      vertex 172 70 0
      vertex 172 70 5
    endloop
  endfacet
  facet normal 1 0 0
    outer loop
      vertex 172 70 0
      vertex 172 0 5
      vertex 172 0 0
    endloop
  endfacet
  facet normal 0 1 -0
    outer loop
      vertex 172 70 0
      vertex 0 70 5
      vertex 172 70 5
    endloop
  endfacet
  facet normal 0 1 0
    outer loop
      vertex 0 70 5
      vertex 172 70 0
      vertex 0 70 0
    endloop
  endfacet
  facet normal -1 0 0
    outer loop
      vertex 0 0 0
      vertex 0 70 5
      vertex 0 70 0
    endloop
  endfacet
  facet normal -1 -0 0
    outer loop
      vertex 0 70 5
      vertex 0 0 0
      vertex 0 0 5
    endloop
  endfacet
endsolid OpenSCAD_Model
