solid OpenSCAD_Model
  facet normal 0 0 -1
    outer loop
      vertex 171.525 0 0
      vertex 172 69.5248 0
      vertex 172 0.720245 0
    endloop
  endfacet
  facet normal 0 0 -1
    outer loop
      vertex 171.525 0 0
      vertex 172 0.720245 0
      vertex 171.654 0.0421143 0
    endloop
  endfacet
  facet normal 0 0 -1
    outer loop
      vertex 41.427 61.2366 0
      vertex 172 69.5248 0
      vertex 171.525 0 0
    endloop
  endfacet
  facet normal 0 0 -1
    outer loop
      vertex 171.962 69.641 0
      vertex 170.58 83.5143 0
      vertex 172 70 0
    endloop
  endfacet
  facet normal 0 -0 -1
    outer loop
      vertex 42 63 0
      vertex 172 69.5248 0
      vertex 41.427 61.2366 0
    endloop
  endfacet
  facet normal 0 -0 -1
    outer loop
      vertex 42.0628 69.4029 0
      vertex 171.962 69.641 0
      vertex 42 63 0
    endloop
  endfacet
  facet normal -0 0 -1
    outer loop
      vertex 171.962 69.641 0
      vertex 42.0628 69.4029 0
      vertex 170.58 83.5143 0
    endloop
  endfacet
  facet normal -0 0 -1
    outer loop
      vertex 170.58 83.5143 0
      vertex 42.0628 69.4029 0
      vertex 166.38 96.4379 0
    endloop
  endfacet
  facet normal -0 0 -1
    outer loop
      vertex 166.38 96.4379 0
      vertex 42.0628 69.4029 0
      vertex 159.586 108.206 0
    endloop
  endfacet
  facet normal -0 0 -1
    outer loop
      vertex 159.586 108.206 0
      vertex 42.0628 69.4029 0
      vertex 150.493 118.304 0
    endloop
  endfacet
  facet normal -0 0 -1
    outer loop
      vertex 150.493 118.304 0
      vertex 42.0628 69.4029 0
      vertex 139.5 126.292 0
    endloop
  endfacet
  facet normal -0 0 -1
    outer loop
      vertex 139.5 126.292 0
      vertex 42.0628 69.4029 0
      vertex 127.086 131.819 0
    endloop
  endfacet
  facet normal -0 0 -1
    outer loop
      vertex 127.086 131.819 0
      vertex 42.0628 69.4029 0
      vertex 113.794 134.644 0
    endloop
  endfacet
  facet normal -0 0 -1
    outer loop
      vertex 113.794 134.644 0
      vertex 42.0628 69.4029 0
      vertex 100.206 134.644 0
    endloop
  endfacet
  facet normal 0 0 -1
    outer loop
      vertex 100.206 134.644 0
      vertex 42.0628 69.4029 0
      vertex 86.9139 131.819 0
    endloop
  endfacet
  facet normal 0 0 -1
    outer loop
      vertex 86.9139 131.819 0
      vertex 42.0628 69.4029 0
      vertex 74.5 126.292 0
    endloop
  endfacet
  facet normal 0 0 -1
    outer loop
      vertex 63.5065 118.304 0
      vertex 42.0628 69.4029 0
      vertex 54.4139 108.206 0
    endloop
  endfacet
  facet normal 0 0 -1
    outer loop
      vertex 54.4139 108.206 0
      vertex 42.0628 69.4029 0
      vertex 47.6195 96.4379 0
    endloop
  endfacet
  facet normal 0 0 -1
    outer loop
      vertex 47.6195 96.4379 0
      vertex 42.0628 69.4029 0
      vertex 43.4204 83.5143 0
    endloop
  endfacet
  facet normal 0 0 -1
    outer loop
      vertex 74.5 126.292 0
      vertex 42.0628 69.4029 0
      vertex 63.5065 118.304 0
    endloop
  endfacet
  facet normal -0 0 -1
    outer loop
      vertex 172 69.5248 0
      vertex 42 63 0
      vertex 171.962 69.641 0
    endloop
  endfacet
  facet normal 0 0 -1
    outer loop
      vertex 0.720245 0 0
      vertex 41.427 61.2366 0
      vertex 171.525 0 0
    endloop
  endfacet
  facet normal 0 0 -1
    outer loop
      vertex 41.427 61.2366 0
      vertex 0.720245 0 0
      vertex 39 60 0
    endloop
  endfacet
  facet normal 0 0 -1
    outer loop
      vertex 0 54.2798 0
      vertex 39 60 0
      vertex 0.720245 0 0
    endloop
  endfacet
  facet normal -0 0 -1
    outer loop
      vertex 39 60 0
      vertex 0 54.2798 0
      vertex 7.10709 60 0
    endloop
  endfacet
  facet normal 0 -0 -1
    outer loop
      vertex 0.309784 54.8878 0
      vertex 7.10709 60 0
      vertex 0 54.2798 0
    endloop
  endfacet
  facet normal 0 0 -1
    outer loop
      vertex 7.10709 60 0
      vertex 0.309784 54.8878 0
      vertex 6.89403 59.9848 0
    endloop
  endfacet
  facet normal 0 -0 -1
    outer loop
      vertex 0.568192 55.612 0
      vertex 6.89403 59.9848 0
      vertex 0.309784 54.8878 0
    endloop
  endfacet
  facet normal 0 0 -1
    outer loop
      vertex 6.89403 59.9848 0
      vertex 0.568192 55.612 0
      vertex 5.2402 59.747 0
    endloop
  endfacet
  facet normal 0 0 -1
    outer loop
      vertex 5.2402 59.747 0
      vertex 0.568192 55.612 0
      vertex 4.83273 59.6273 0
    endloop
  endfacet
  facet normal 0 0 -1
    outer loop
      vertex 3.41071 58.9779 0
      vertex 0.568192 55.612 0
      vertex 3.05334 58.7483 0
    endloop
  endfacet
  facet normal 0 0 -1
    outer loop
      vertex 3.05334 58.7483 0
      vertex 0.568192 55.612 0
      vertex 1.8719 57.7245 0
    endloop
  endfacet
  facet normal 0 0 -1
    outer loop
      vertex 1.8719 57.7245 0
      vertex 0.568192 55.612 0
      vertex 1.59375 57.4035 0
    endloop
  endfacet
  facet normal 0 0 -1
    outer loop
      vertex 0.777695 56.1337 0
      vertex 0.568192 55.612 0
      vertex 0.575516 55.6456 0
    endloop
  endfacet
  facet normal 0 0 -1
    outer loop
      vertex 1.59375 57.4035 0
      vertex 0.568192 55.612 0
      vertex 0.777695 56.1337 0
    endloop
  endfacet
  facet normal 0 0 -1
    outer loop
      vertex 0 0.475159 0
      vertex 0.720245 0 0
      vertex 0.0421143 0.345535 0
    endloop
  endfacet
  facet normal 0 0 -1
    outer loop
      vertex 0 54.2798 0
      vertex 0.720245 0 0
      vertex 0 0.475159 0
    endloop
  endfacet
  facet normal 0 0 -1
    outer loop
      vertex 4.83273 59.6273 0
      vertex 0.568192 55.612 0
      vertex 3.41071 58.9779 0
    endloop
  endfacet
  facet normal 0 0 -1
    outer loop
      vertex 43.4204 83.5143 0
      vertex 42.0628 69.4029 0
      vertex 42 70 0
    endloop
  endfacet
  facet normal 0 0 -1
    outer loop
      vertex 42.0628 69.4029 0
      vertex 42 63 0
      vertex 42 69.2798 0
    endloop
  endfacet
  facet normal 0 0 1
    outer loop
      vertex 48.0784 78.1628 10
      vertex 46.8 66 10
      vertex 46.8565 65.4626 10
    endloop
  endfacet
  facet normal 0 0 1
    outer loop
      vertex 163.8 3.64821 10
      vertex 163.372 3 10
      vertex 163.489 3.0379 10
    endloop
  endfacet
  facet normal 0 0 1
    outer loop
      vertex 162.522 78.1628 10
      vertex 163.766 65.6769 10
      vertex 163.8 66 10
    endloop
  endfacet
  facet normal 0 0 1
    outer loop
      vertex 46.8565 65.4626 10
      vertex 163.766 65.6769 10
      vertex 162.522 78.1628 10
    endloop
  endfacet
  facet normal 0 0 1
    outer loop
      vertex 46.8565 65.4626 10
      vertex 162.522 78.1628 10
      vertex 158.742 89.7941 10
    endloop
  endfacet
  facet normal 0 0 1
    outer loop
      vertex 46.8565 65.4626 10
      vertex 158.742 89.7941 10
      vertex 152.627 100.385 10
    endloop
  endfacet
  facet normal 0 0 1
    outer loop
      vertex 46.8565 65.4626 10
      vertex 152.627 100.385 10
      vertex 144.444 109.474 10
    endloop
  endfacet
  facet normal 0 0 1
    outer loop
      vertex 46.8565 65.4626 10
      vertex 144.444 109.474 10
      vertex 134.55 116.662 10
    endloop
  endfacet
  facet normal 0 0 1
    outer loop
      vertex 46.8565 65.4626 10
      vertex 134.55 116.662 10
      vertex 123.377 121.637 10
    endloop
  endfacet
  facet normal 0 0 1
    outer loop
      vertex 46.8565 65.4626 10
      vertex 123.377 121.637 10
      vertex 111.415 124.18 10
    endloop
  endfacet
  facet normal 0 0 1
    outer loop
      vertex 46.8565 65.4626 10
      vertex 111.415 124.18 10
      vertex 99.1851 124.18 10
    endloop
  endfacet
  facet normal 0 0 1
    outer loop
      vertex 46.8565 65.4626 10
      vertex 99.1851 124.18 10
      vertex 87.2225 121.637 10
    endloop
  endfacet
  facet normal 0 0 1
    outer loop
      vertex 46.8565 65.4626 10
      vertex 87.2225 121.637 10
      vertex 76.05 116.662 10
    endloop
  endfacet
  facet normal 0 0 1
    outer loop
      vertex 46.8565 65.4626 10
      vertex 76.05 116.662 10
      vertex 66.1558 109.474 10
    endloop
  endfacet
  facet normal 0 0 1
    outer loop
      vertex 46.8565 65.4626 10
      vertex 66.1558 109.474 10
      vertex 57.9725 100.385 10
    endloop
  endfacet
  facet normal 0 0 1
    outer loop
      vertex 46.8565 65.4626 10
      vertex 57.9725 100.385 10
      vertex 51.8576 89.7941 10
    endloop
  endfacet
  facet normal 0 0 1
    outer loop
      vertex 46.8565 65.4626 10
      vertex 51.8576 89.7941 10
      vertex 48.0784 78.1628 10
    endloop
  endfacet
  facet normal 0 0 1
    outer loop
      vertex 163.766 65.6769 10
      vertex 46.8565 65.4626 10
      vertex 46.8 59.7 10
    endloop
  endfacet
  facet normal 0 0 1
    outer loop
      vertex 46.8 59.7 10
      vertex 46.8565 65.4626 10
      vertex 46.8 65.3518 10
    endloop
  endfacet
  facet normal 0 0 1
    outer loop
      vertex 163.8 65.5724 10
      vertex 46.8 59.7 10
      vertex 46.2843 58.113 10
    endloop
  endfacet
  facet normal 0 0 1
    outer loop
      vertex 163.8 65.5724 10
      vertex 46.2843 58.113 10
      vertex 163.372 3 10
    endloop
  endfacet
  facet normal 0 0 1
    outer loop
      vertex 9.64821 3 10
      vertex 46.2843 58.113 10
      vertex 44.1 57 10
    endloop
  endfacet
  facet normal 0 0 1
    outer loop
      vertex 9 51.8518 10
      vertex 44.1 57 10
      vertex 15.3964 57 10
    endloop
  endfacet
  facet normal 0 0 1
    outer loop
      vertex 9.27879 52.399 10
      vertex 15.3964 57 10
      vertex 15.2046 56.9863 10
    endloop
  endfacet
  facet normal 0 0 1
    outer loop
      vertex 9.51137 53.0508 10
      vertex 15.2046 56.9863 10
      vertex 13.7162 56.7723 10
    endloop
  endfacet
  facet normal 0 0 1
    outer loop
      vertex 9.51137 53.0508 10
      vertex 13.7162 56.7723 10
      vertex 13.3495 56.6646 10
    endloop
  endfacet
  facet normal 0 0 1
    outer loop
      vertex 9.51137 53.0508 10
      vertex 13.3495 56.6646 10
      vertex 12.0696 56.0801 10
    endloop
  endfacet
  facet normal 0 0 1
    outer loop
      vertex 9.51137 53.0508 10
      vertex 12.0696 56.0801 10
      vertex 11.748 55.8734 10
    endloop
  endfacet
  facet normal 0 0 1
    outer loop
      vertex 9.51137 53.0508 10
      vertex 11.748 55.8734 10
      vertex 10.6847 54.9521 10
    endloop
  endfacet
  facet normal 0 0 1
    outer loop
      vertex 9.51137 53.0508 10
      vertex 10.6847 54.9521 10
      vertex 10.4344 54.6632 10
    endloop
  endfacet
  facet normal 0 0 1
    outer loop
      vertex 9.51137 53.0508 10
      vertex 10.4344 54.6632 10
      vertex 9.69992 53.5203 10
    endloop
  endfacet
  facet normal 0 0 1
    outer loop
      vertex 46.2843 58.113 10
      vertex 9.64821 3 10
      vertex 163.372 3 10
    endloop
  endfacet
  facet normal 0 0 1
    outer loop
      vertex 9.51137 53.0508 10
      vertex 9.69992 53.5203 10
      vertex 9.51796 53.081 10
    endloop
  endfacet
  facet normal 0 0 1
    outer loop
      vertex 15.2046 56.9863 10
      vertex 9.51137 53.0508 10
      vertex 9.27879 52.399 10
    endloop
  endfacet
  facet normal 0 0 1
    outer loop
      vertex 15.3964 57 10
      vertex 9.27879 52.399 10
      vertex 9 51.8518 10
    endloop
  endfacet
  facet normal 0 0 1
    outer loop
      vertex 44.1 57 10
      vertex 9 51.8518 10
      vertex 9.64821 3 10
    endloop
  endfacet
  facet normal 0 0 1
    outer loop
      vertex 9.64821 3 10
      vertex 9 51.8518 10
      vertex 9 3.42764 10
    endloop
  endfacet
  facet normal 0 0 1
    outer loop
      vertex 9.64821 3 10
      vertex 9 3.42764 10
      vertex 9.0379 3.31097 10
    endloop
  endfacet
  facet normal 0 0 1
    outer loop
      vertex 46.8 59.7 10
      vertex 163.8 65.5724 10
      vertex 163.766 65.6769 10
    endloop
  endfacet
  facet normal 0 0 1
    outer loop
      vertex 163.372 3 10
      vertex 163.8 3.64821 10
      vertex 163.8 65.5724 10
    endloop
  endfacet
  facet normal 0.890754 -0.454486 0
    outer loop
      vertex 171.654 0.0421143 60
      vertex 172 0.720245 0
      vertex 172 0.720245 60
    endloop
  endfacet
  facet normal 0.890754 -0.454486 0
    outer loop
      vertex 172 0.720245 0
      vertex 171.654 0.0421143 60
      vertex 171.654 0.0421143 0
    endloop
  endfacet
  facet normal 1 -0 0
    outer loop
      vertex 172 0.720245 60
      vertex 172 69.5248 0
      vertex 172 69.5248 60
    endloop
  endfacet
  facet normal 1 0 0
    outer loop
      vertex 172 69.5248 0
      vertex 172 0.720245 60
      vertex 172 0.720245 0
    endloop
  endfacet
  facet normal 0.950467 0.310824 0
    outer loop
      vertex 172 69.5248 60
      vertex 171.962 69.641 0
      vertex 171.962 69.641 60
    endloop
  endfacet
  facet normal 0.950467 0.310824 0
    outer loop
      vertex 171.962 69.641 0
      vertex 172 69.5248 60
      vertex 172 69.5248 0
    endloop
  endfacet
  facet normal 0.994445 -0.105262 0
    outer loop
      vertex 171.962 69.641 60
      vertex 172 70 0
      vertex 172 70 60
    endloop
  endfacet
  facet normal 0.994445 -0.105262 0
    outer loop
      vertex 172 70 0
      vertex 171.962 69.641 60
      vertex 171.962 69.641 0
    endloop
  endfacet
  facet normal 0.994525 0.104499 0
    outer loop
      vertex 172 70 60
      vertex 170.58 83.5143 0
      vertex 170.58 83.5143 60
    endloop
  endfacet
  facet normal 0.994525 0.104499 0
    outer loop
      vertex 170.58 83.5143 0
      vertex 172 70 60
      vertex 172 70 0
    endloop
  endfacet
  facet normal 0.951038 0.309075 0
    outer loop
      vertex 170.58 83.5143 60
      vertex 166.38 96.4379 0
      vertex 166.38 96.4379 60
    endloop
  endfacet
  facet normal 0.951038 0.309075 0
    outer loop
      vertex 166.38 96.4379 0
      vertex 170.58 83.5143 60
      vertex 170.58 83.5143 0
    endloop
  endfacet
  facet normal 0.866035 0.499983 0
    outer loop
      vertex 166.38 96.4379 60
      vertex 159.586 108.206 0
      vertex 159.586 108.206 60
    endloop
  endfacet
  facet normal 0.866035 0.499983 0
    outer loop
      vertex 159.586 108.206 0
      vertex 166.38 96.4379 60
      vertex 166.38 96.4379 0
    endloop
  endfacet
  facet normal 0.743118 0.66916 0
    outer loop
      vertex 159.586 108.206 60
      vertex 150.493 118.304 0
      vertex 150.493 118.304 60
    endloop
  endfacet
  facet normal 0.743118 0.66916 0
    outer loop
      vertex 150.493 118.304 0
      vertex 159.586 108.206 60
      vertex 159.586 108.206 0
    endloop
  endfacet
  facet normal 0.587839 0.808978 -0
    outer loop
      vertex 150.493 118.304 0
      vertex 139.5 126.292 60
      vertex 150.493 118.304 60
    endloop
  endfacet
  facet normal 0.587839 0.808978 0
    outer loop
      vertex 139.5 126.292 60
      vertex 150.493 118.304 0
      vertex 139.5 126.292 0
    endloop
  endfacet
  facet normal 0.406732 0.913547 -0
    outer loop
      vertex 139.5 126.292 0
      vertex 127.086 131.819 60
      vertex 139.5 126.292 60
    endloop
  endfacet
  facet normal 0.406732 0.913547 0
    outer loop
      vertex 127.086 131.819 60
      vertex 139.5 126.292 0
      vertex 127.086 131.819 0
    endloop
  endfacet
  facet normal 0.20789 0.978152 -0
    outer loop
      vertex 127.086 131.819 0
      vertex 113.794 134.644 60
      vertex 127.086 131.819 60
    endloop
  endfacet
  facet normal 0.20789 0.978152 0
    outer loop
      vertex 113.794 134.644 60
      vertex 127.086 131.819 0
      vertex 113.794 134.644 0
    endloop
  endfacet
  facet normal 0 1 -0
    outer loop
      vertex 113.794 134.644 0
      vertex 100.206 134.644 60
      vertex 113.794 134.644 60
    endloop
  endfacet
  facet normal 0 1 0
    outer loop
      vertex 100.206 134.644 60
      vertex 113.794 134.644 0
      vertex 100.206 134.644 0
    endloop
  endfacet
  facet normal -0.207889 0.978152 0
    outer loop
      vertex 100.206 134.644 0
      vertex 86.9139 131.819 60
      vertex 100.206 134.644 60
    endloop
  endfacet
  facet normal -0.207889 0.978152 0
    outer loop
      vertex 86.9139 131.819 60
      vertex 100.206 134.644 0
      vertex 86.9139 131.819 0
    endloop
  endfacet
  facet normal -0.406735 0.913546 0
    outer loop
      vertex 86.9139 131.819 0
      vertex 74.5 126.292 60
      vertex 86.9139 131.819 60
    endloop
  endfacet
  facet normal -0.406735 0.913546 0
    outer loop
      vertex 74.5 126.292 60
      vertex 86.9139 131.819 0
      vertex 74.5 126.292 0
    endloop
  endfacet
  facet normal -0.587822 0.808991 0
    outer loop
      vertex 74.5 126.292 0
      vertex 63.5065 118.304 60
      vertex 74.5 126.292 60
    endloop
  endfacet
  facet normal -0.587822 0.808991 0
    outer loop
      vertex 63.5065 118.304 60
      vertex 74.5 126.292 0
      vertex 63.5065 118.304 0
    endloop
  endfacet
  facet normal -0.743133 0.669144 0
    outer loop
      vertex 54.4139 108.206 0
      vertex 63.5065 118.304 60
      vertex 63.5065 118.304 0
    endloop
  endfacet
  facet normal -0.743133 0.669144 0
    outer loop
      vertex 63.5065 118.304 60
      vertex 54.4139 108.206 0
      vertex 54.4139 108.206 60
    endloop
  endfacet
  facet normal -0.866023 0.500005 0
    outer loop
      vertex 47.6195 96.4379 0
      vertex 54.4139 108.206 60
      vertex 54.4139 108.206 0
    endloop
  endfacet
  facet normal -0.866023 0.500005 0
    outer loop
      vertex 54.4139 108.206 60
      vertex 47.6195 96.4379 0
      vertex 47.6195 96.4379 60
    endloop
  endfacet
  facet normal -0.951057 0.309015 0
    outer loop
      vertex 43.4204 83.5143 0
      vertex 47.6195 96.4379 60
      vertex 47.6195 96.4379 0
    endloop
  endfacet
  facet normal -0.951057 0.309015 0
    outer loop
      vertex 47.6195 96.4379 60
      vertex 43.4204 83.5143 0
      vertex 43.4204 83.5143 60
    endloop
  endfacet
  facet normal -0.994522 0.104528 0
    outer loop
      vertex 42 70 0
      vertex 43.4204 83.5143 60
      vertex 43.4204 83.5143 0
    endloop
  endfacet
  facet normal -0.994522 0.104528 0
    outer loop
      vertex 43.4204 83.5143 60
      vertex 42 70 0
      vertex 42 70 60
    endloop
  endfacet
  facet normal -0.994515 -0.104598 0
    outer loop
      vertex 42.0628 69.4029 0
      vertex 42 70 60
      vertex 42 70 0
    endloop
  endfacet
  facet normal -0.994515 -0.104598 0
    outer loop
      vertex 42 70 60
      vertex 42.0628 69.4029 0
      vertex 42.0628 69.4029 60
    endloop
  endfacet
  facet normal -0.89078 0.454435 0
    outer loop
      vertex 42 69.2798 0
      vertex 42.0628 69.4029 60
      vertex 42.0628 69.4029 0
    endloop
  endfacet
  facet normal -0.89078 0.454435 0
    outer loop
      vertex 42.0628 69.4029 60
      vertex 42 69.2798 0
      vertex 42 69.2798 60
    endloop
  endfacet
  facet normal -1 0 0
    outer loop
      vertex 42 63 0
      vertex 42 69.2798 60
      vertex 42 69.2798 0
    endloop
  endfacet
  facet normal -1 -0 0
    outer loop
      vertex 42 69.2798 60
      vertex 42 63 0
      vertex 42 63 60
    endloop
  endfacet
  facet normal -0.951051 0.309035 0
    outer loop
      vertex 41.427 61.2366 0
      vertex 42 63 60
      vertex 42 63 0
    endloop
  endfacet
  facet normal -0.951051 0.309035 0
    outer loop
      vertex 42 63 60
      vertex 41.427 61.2366 0
      vertex 41.427 61.2366 60
    endloop
  endfacet
  facet normal -0.453985 0.891009 0
    outer loop
      vertex 41.427 61.2366 0
      vertex 39 60 60
      vertex 41.427 61.2366 60
    endloop
  endfacet
  facet normal -0.453985 0.891009 0
    outer loop
      vertex 39 60 60
      vertex 41.427 61.2366 0
      vertex 39 60 0
    endloop
  endfacet
  facet normal 0 1 -0
    outer loop
      vertex 39 60 0
      vertex 7.10709 60 60
      vertex 39 60 60
    endloop
  endfacet
  facet normal 0 1 0
    outer loop
      vertex 7.10709 60 60
      vertex 39 60 0
      vertex 7.10709 60 0
    endloop
  endfacet
  facet normal -0.0711605 0.997465 0
    outer loop
      vertex 7.10709 60 0
      vertex 6.89403 59.9848 60
      vertex 7.10709 60 60
    endloop
  endfacet
  facet normal -0.0711605 0.997465 0
    outer loop
      vertex 6.89403 59.9848 60
      vertex 7.10709 60 0
      vertex 6.89403 59.9848 0
    endloop
  endfacet
  facet normal -0.142324 0.98982 0
    outer loop
      vertex 6.89403 59.9848 0
      vertex 5.2402 59.747 60
      vertex 6.89403 59.9848 60
    endloop
  endfacet
  facet normal -0.142324 0.98982 0
    outer loop
      vertex 5.2402 59.747 60
      vertex 6.89403 59.9848 0
      vertex 5.2402 59.747 0
    endloop
  endfacet
  facet normal -0.281854 0.959457 0
    outer loop
      vertex 5.2402 59.747 0
      vertex 4.83273 59.6273 60
      vertex 5.2402 59.747 60
    endloop
  endfacet
  facet normal -0.281854 0.959457 0
    outer loop
      vertex 4.83273 59.6273 60
      vertex 5.2402 59.747 0
      vertex 4.83273 59.6273 0
    endloop
  endfacet
  facet normal -0.415407 0.909636 0
    outer loop
      vertex 4.83273 59.6273 0
      vertex 3.41071 58.9779 60
      vertex 4.83273 59.6273 60
    endloop
  endfacet
  facet normal -0.415407 0.909636 0
    outer loop
      vertex 3.41071 58.9779 60
      vertex 4.83273 59.6273 0
      vertex 3.41071 58.9779 0
    endloop
  endfacet
  facet normal -0.540528 0.841326 0
    outer loop
      vertex 3.41071 58.9779 0
      vertex 3.05334 58.7483 60
      vertex 3.41071 58.9779 60
    endloop
  endfacet
  facet normal -0.540528 0.841326 0
    outer loop
      vertex 3.05334 58.7483 60
      vertex 3.41071 58.9779 0
      vertex 3.05334 58.7483 0
    endloop
  endfacet
  facet normal -0.654889 0.755725 0
    outer loop
      vertex 3.05334 58.7483 0
      vertex 1.8719 57.7245 60
      vertex 3.05334 58.7483 60
    endloop
  endfacet
  facet normal -0.654889 0.755725 0
    outer loop
      vertex 1.8719 57.7245 60
      vertex 3.05334 58.7483 0
      vertex 1.8719 57.7245 0
    endloop
  endfacet
  facet normal -0.755747 0.654863 0
    outer loop
      vertex 1.59375 57.4035 0
      vertex 1.8719 57.7245 60
      vertex 1.8719 57.7245 0
    endloop
  endfacet
  facet normal -0.755747 0.654863 0
    outer loop
      vertex 1.8719 57.7245 60
      vertex 1.59375 57.4035 0
      vertex 1.59375 57.4035 60
    endloop
  endfacet
  facet normal -0.841252 0.540643 0
    outer loop
      vertex 0.777695 56.1337 0
      vertex 1.59375 57.4035 60
      vertex 1.59375 57.4035 0
    endloop
  endfacet
  facet normal -0.841252 0.540643 0
    outer loop
      vertex 1.59375 57.4035 60
      vertex 0.777695 56.1337 0
      vertex 0.777695 56.1337 60
    endloop
  endfacet
  facet normal -0.923879 0.382686 0
    outer loop
      vertex 0.575516 55.6456 0
      vertex 0.777695 56.1337 60
      vertex 0.777695 56.1337 0
    endloop
  endfacet
  facet normal -0.923879 0.382686 0
    outer loop
      vertex 0.777695 56.1337 60
      vertex 0.575516 55.6456 0
      vertex 0.575516 55.6456 60
    endloop
  endfacet
  facet normal -0.977058 0.212975 0
    outer loop
      vertex 0.568192 55.612 0
      vertex 0.575516 55.6456 60
      vertex 0.575516 55.6456 0
    endloop
  endfacet
  facet normal -0.977058 0.212975 0
    outer loop
      vertex 0.575516 55.6456 60
      vertex 0.568192 55.612 0
      vertex 0.568192 55.612 60
    endloop
  endfacet
  facet normal -0.941839 0.336065 0
    outer loop
      vertex 0.309784 54.8878 0
      vertex 0.568192 55.612 60
      vertex 0.568192 55.612 0
    endloop
  endfacet
  facet normal -0.941839 0.336065 0
    outer loop
      vertex 0.568192 55.612 60
      vertex 0.309784 54.8878 0
      vertex 0.309784 54.8878 60
    endloop
  endfacet
  facet normal -0.891011 0.453982 0
    outer loop
      vertex 0 54.2798 0
      vertex 0.309784 54.8878 60
      vertex 0.309784 54.8878 0
    endloop
  endfacet
  facet normal -0.891011 0.453982 0
    outer loop
      vertex 0.309784 54.8878 60
      vertex 0 54.2798 0
      vertex 0 54.2798 60
    endloop
  endfacet
  facet normal -1 0 0
    outer loop
      vertex 0 0.475159 0
      vertex 0 54.2798 60
      vertex 0 54.2798 0
    endloop
  endfacet
  facet normal -1 -0 0
    outer loop
      vertex 0 54.2798 60
      vertex 0 0.475159 0
      vertex 0 0.475159 60
    endloop
  endfacet
  facet normal -0.951063 -0.308996 0
    outer loop
      vertex 0.0421143 0.345535 0
      vertex 0 0.475159 60
      vertex 0 0.475159 0
    endloop
  endfacet
  facet normal -0.951063 -0.308996 0
    outer loop
      vertex 0 0.475159 60
      vertex 0.0421143 0.345535 0
      vertex 0.0421143 0.345535 60
    endloop
  endfacet
  facet normal -0.454001 -0.891001 0
    outer loop
      vertex 0.0421143 0.345535 0
      vertex 0.720245 0 60
      vertex 0.0421143 0.345535 60
    endloop
  endfacet
  facet normal -0.454001 -0.891001 -0
    outer loop
      vertex 0.720245 0 60
      vertex 0.0421143 0.345535 0
      vertex 0.720245 0 0
    endloop
  endfacet
  facet normal 0 -1 0
    outer loop
      vertex 0.720245 0 0
      vertex 171.525 0 60
      vertex 0.720245 0 60
    endloop
  endfacet
  facet normal 0 -1 -0
    outer loop
      vertex 171.525 0 60
      vertex 0.720245 0 0
      vertex 171.525 0 0
    endloop
  endfacet
  facet normal 0.310348 -0.950623 0
    outer loop
      vertex 171.525 0 0
      vertex 171.654 0.0421143 60
      vertex 171.525 0 60
    endloop
  endfacet
  facet normal 0.310348 -0.950623 0
    outer loop
      vertex 171.654 0.0421143 60
      vertex 171.525 0 0
      vertex 171.654 0.0421143 0
    endloop
  endfacet
  facet normal 0 0 1
    outer loop
      vertex 46.8 66 60
      vertex 42 70 60
      vertex 42.0628 69.4029 60
    endloop
  endfacet
  facet normal 0 0 1
    outer loop
      vertex 163.8 66 60
      vertex 163.766 65.6769 60
      vertex 163.8 65.5724 60
    endloop
  endfacet
  facet normal 0 0 1
    outer loop
      vertex 172 70 60
      vertex 162.522 78.1628 60
      vertex 163.8 66 60
    endloop
  endfacet
  facet normal -0 0 1
    outer loop
      vertex 152.627 100.385 60
      vertex 166.38 96.4379 60
      vertex 159.586 108.206 60
    endloop
  endfacet
  facet normal 0 0 1
    outer loop
      vertex 170.58 83.5143 60
      vertex 158.742 89.7941 60
      vertex 162.522 78.1628 60
    endloop
  endfacet
  facet normal 0 0 1
    outer loop
      vertex 166.38 96.4379 60
      vertex 152.627 100.385 60
      vertex 158.742 89.7941 60
    endloop
  endfacet
  facet normal -0 0 1
    outer loop
      vertex 144.444 109.474 60
      vertex 159.586 108.206 60
      vertex 150.493 118.304 60
    endloop
  endfacet
  facet normal 0 0 1
    outer loop
      vertex 159.586 108.206 60
      vertex 144.444 109.474 60
      vertex 152.627 100.385 60
    endloop
  endfacet
  facet normal 0 0 1
    outer loop
      vertex 134.55 116.662 60
      vertex 150.493 118.304 60
      vertex 139.5 126.292 60
    endloop
  endfacet
  facet normal 0 0 1
    outer loop
      vertex 150.493 118.304 60
      vertex 134.55 116.662 60
      vertex 144.444 109.474 60
    endloop
  endfacet
  facet normal 0 0 1
    outer loop
      vertex 123.377 121.637 60
      vertex 139.5 126.292 60
      vertex 127.086 131.819 60
    endloop
  endfacet
  facet normal 0 0 1
    outer loop
      vertex 139.5 126.292 60
      vertex 123.377 121.637 60
      vertex 134.55 116.662 60
    endloop
  endfacet
  facet normal 0 0 1
    outer loop
      vertex 113.794 134.644 60
      vertex 123.377 121.637 60
      vertex 127.086 131.819 60
    endloop
  endfacet
  facet normal 0 0 1
    outer loop
      vertex 113.794 134.644 60
      vertex 111.415 124.18 60
      vertex 123.377 121.637 60
    endloop
  endfacet
  facet normal -0 0 1
    outer loop
      vertex 100.206 134.644 60
      vertex 111.415 124.18 60
      vertex 113.794 134.644 60
    endloop
  endfacet
  facet normal 0 0 1
    outer loop
      vertex 100.206 134.644 60
      vertex 99.1851 124.18 60
      vertex 111.415 124.18 60
    endloop
  endfacet
  facet normal -0 0 1
    outer loop
      vertex 86.9139 131.819 60
      vertex 99.1851 124.18 60
      vertex 100.206 134.644 60
    endloop
  endfacet
  facet normal 0 0 1
    outer loop
      vertex 99.1851 124.18 60
      vertex 86.9139 131.819 60
      vertex 87.2225 121.637 60
    endloop
  endfacet
  facet normal -0 0 1
    outer loop
      vertex 74.5 126.292 60
      vertex 87.2225 121.637 60
      vertex 86.9139 131.819 60
    endloop
  endfacet
  facet normal 0 0 1
    outer loop
      vertex 87.2225 121.637 60
      vertex 74.5 126.292 60
      vertex 76.05 116.662 60
    endloop
  endfacet
  facet normal -0 0 1
    outer loop
      vertex 63.5065 118.304 60
      vertex 76.05 116.662 60
      vertex 74.5 126.292 60
    endloop
  endfacet
  facet normal 0 0 1
    outer loop
      vertex 76.05 116.662 60
      vertex 63.5065 118.304 60
      vertex 66.1558 109.474 60
    endloop
  endfacet
  facet normal 0 0 1
    outer loop
      vertex 54.4139 108.206 60
      vertex 66.1558 109.474 60
      vertex 63.5065 118.304 60
    endloop
  endfacet
  facet normal 0 0 1
    outer loop
      vertex 66.1558 109.474 60
      vertex 54.4139 108.206 60
      vertex 57.9725 100.385 60
    endloop
  endfacet
  facet normal 0 0 1
    outer loop
      vertex 47.6195 96.4379 60
      vertex 57.9725 100.385 60
      vertex 54.4139 108.206 60
    endloop
  endfacet
  facet normal 0 0 1
    outer loop
      vertex 57.9725 100.385 60
      vertex 47.6195 96.4379 60
      vertex 51.8576 89.7941 60
    endloop
  endfacet
  facet normal 0 0 1
    outer loop
      vertex 43.4204 83.5143 60
      vertex 51.8576 89.7941 60
      vertex 47.6195 96.4379 60
    endloop
  endfacet
  facet normal 0 0 1
    outer loop
      vertex 51.8576 89.7941 60
      vertex 43.4204 83.5143 60
      vertex 48.0784 78.1628 60
    endloop
  endfacet
  facet normal 0 0 1
    outer loop
      vertex 42 63 60
      vertex 46.8 65.3518 60
      vertex 46.8 66 60
    endloop
  endfacet
  facet normal 0 0 1
    outer loop
      vertex 46.8 65.3518 60
      vertex 42 63 60
      vertex 46.8 59.7 60
    endloop
  endfacet
  facet normal 0 0 1
    outer loop
      vertex 42 70 60
      vertex 48.0784 78.1628 60
      vertex 43.4204 83.5143 60
    endloop
  endfacet
  facet normal -0 0 1
    outer loop
      vertex 42 70 60
      vertex 46.8 66 60
      vertex 48.0784 78.1628 60
    endloop
  endfacet
  facet normal -0 0 1
    outer loop
      vertex 42 69.2798 60
      vertex 46.8 66 60
      vertex 42.0628 69.4029 60
    endloop
  endfacet
  facet normal -0 0 1
    outer loop
      vertex 41.427 61.2366 60
      vertex 46.8 59.7 60
      vertex 42 63 60
    endloop
  endfacet
  facet normal 0 0 1
    outer loop
      vertex 46.8 66 60
      vertex 42 69.2798 60
      vertex 42 63 60
    endloop
  endfacet
  facet normal 0 -0 1
    outer loop
      vertex 44.1 57 60
      vertex 46.8 59.7 60
      vertex 41.427 61.2366 60
    endloop
  endfacet
  facet normal 0 0 1
    outer loop
      vertex 46.8 59.7 60
      vertex 44.1 57 60
      vertex 46.2843 58.113 60
    endloop
  endfacet
  facet normal -0 0 1
    outer loop
      vertex 39 60 60
      vertex 44.1 57 60
      vertex 41.427 61.2366 60
    endloop
  endfacet
  facet normal 0 0 1
    outer loop
      vertex 39 60 60
      vertex 15.3964 57 60
      vertex 44.1 57 60
    endloop
  endfacet
  facet normal -0 0 1
    outer loop
      vertex 7.10709 60 60
      vertex 15.3964 57 60
      vertex 39 60 60
    endloop
  endfacet
  facet normal 0 0 1
    outer loop
      vertex 9.51796 53.081 60
      vertex 9.27879 52.399 60
      vertex 9.51137 53.0508 60
    endloop
  endfacet
  facet normal 0 0 1
    outer loop
      vertex 9.51796 53.081 60
      vertex 9 51.8518 60
      vertex 9.27879 52.399 60
    endloop
  endfacet
  facet normal 0 0 1
    outer loop
      vertex 3.05334 58.7483 60
      vertex 9.51796 53.081 60
      vertex 9.69992 53.5203 60
    endloop
  endfacet
  facet normal -0 0 1
    outer loop
      vertex 5.2402 59.747 60
      vertex 9.69992 53.5203 60
      vertex 6.89403 59.9848 60
    endloop
  endfacet
  facet normal 0 0 1
    outer loop
      vertex 10.4344 54.6632 60
      vertex 6.89403 59.9848 60
      vertex 9.69992 53.5203 60
    endloop
  endfacet
  facet normal -0 0 1
    outer loop
      vertex 6.89403 59.9848 60
      vertex 10.4344 54.6632 60
      vertex 7.10709 60 60
    endloop
  endfacet
  facet normal 0 0 1
    outer loop
      vertex 10.6847 54.9521 60
      vertex 7.10709 60 60
      vertex 10.4344 54.6632 60
    endloop
  endfacet
  facet normal 0 0 1
    outer loop
      vertex 11.748 55.8734 60
      vertex 7.10709 60 60
      vertex 10.6847 54.9521 60
    endloop
  endfacet
  facet normal 0 0 1
    outer loop
      vertex 12.0696 56.0801 60
      vertex 7.10709 60 60
      vertex 11.748 55.8734 60
    endloop
  endfacet
  facet normal 0 0 1
    outer loop
      vertex 13.3495 56.6646 60
      vertex 7.10709 60 60
      vertex 12.0696 56.0801 60
    endloop
  endfacet
  facet normal 0 0 1
    outer loop
      vertex 13.7162 56.7723 60
      vertex 7.10709 60 60
      vertex 13.3495 56.6646 60
    endloop
  endfacet
  facet normal 0 0 1
    outer loop
      vertex 15.2046 56.9863 60
      vertex 7.10709 60 60
      vertex 13.7162 56.7723 60
    endloop
  endfacet
  facet normal 0 0 1
    outer loop
      vertex 15.3964 57 60
      vertex 7.10709 60 60
      vertex 15.2046 56.9863 60
    endloop
  endfacet
  facet normal 0 0 1
    outer loop
      vertex 172 0.720245 60
      vertex 171.525 0 60
      vertex 171.654 0.0421143 60
    endloop
  endfacet
  facet normal -0 0 1
    outer loop
      vertex 162.522 78.1628 60
      vertex 172 70 60
      vertex 170.58 83.5143 60
    endloop
  endfacet
  facet normal 0 0 1
    outer loop
      vertex 172 70 60
      vertex 163.8 66 60
      vertex 171.962 69.641 60
    endloop
  endfacet
  facet normal -0 0 1
    outer loop
      vertex 158.742 89.7941 60
      vertex 170.58 83.5143 60
      vertex 166.38 96.4379 60
    endloop
  endfacet
  facet normal 0 0 1
    outer loop
      vertex 172 69.5248 60
      vertex 163.8 66 60
      vertex 163.8 65.5724 60
    endloop
  endfacet
  facet normal 0 0 1
    outer loop
      vertex 172 69.5248 60
      vertex 163.8 65.5724 60
      vertex 171.525 0 60
    endloop
  endfacet
  facet normal -0 0 1
    outer loop
      vertex 163.8 3.64821 60
      vertex 171.525 0 60
      vertex 163.8 65.5724 60
    endloop
  endfacet
  facet normal -0 0 1
    outer loop
      vertex 163.489 3.0379 60
      vertex 171.525 0 60
      vertex 163.8 3.64821 60
    endloop
  endfacet
  facet normal -0 0 1
    outer loop
      vertex 163.372 3 60
      vertex 171.525 0 60
      vertex 163.489 3.0379 60
    endloop
  endfacet
  facet normal -0 0 1
    outer loop
      vertex 9.64821 3 60
      vertex 171.525 0 60
      vertex 163.372 3 60
    endloop
  endfacet
  facet normal -0 0 1
    outer loop
      vertex 4.83273 59.6273 60
      vertex 9.69992 53.5203 60
      vertex 5.2402 59.747 60
    endloop
  endfacet
  facet normal -0 0 1
    outer loop
      vertex 3.41071 58.9779 60
      vertex 9.69992 53.5203 60
      vertex 4.83273 59.6273 60
    endloop
  endfacet
  facet normal -0 0 1
    outer loop
      vertex 3.05334 58.7483 60
      vertex 9.69992 53.5203 60
      vertex 3.41071 58.9779 60
    endloop
  endfacet
  facet normal 0 0 1
    outer loop
      vertex 9.51796 53.081 60
      vertex 3.05334 58.7483 60
      vertex 1.8719 57.7245 60
    endloop
  endfacet
  facet normal 0 0 1
    outer loop
      vertex 9.51796 53.081 60
      vertex 1.8719 57.7245 60
      vertex 1.59375 57.4035 60
    endloop
  endfacet
  facet normal 0 0 1
    outer loop
      vertex 9.51796 53.081 60
      vertex 1.59375 57.4035 60
      vertex 9 51.8518 60
    endloop
  endfacet
  facet normal -0 0 1
    outer loop
      vertex 0.777695 56.1337 60
      vertex 9 51.8518 60
      vertex 1.59375 57.4035 60
    endloop
  endfacet
  facet normal 0 0 1
    outer loop
      vertex 9 51.8518 60
      vertex 0.777695 56.1337 60
      vertex 0.568192 55.612 60
    endloop
  endfacet
  facet normal 0 0 1
    outer loop
      vertex 9.64821 3 60
      vertex 0.720245 0 60
      vertex 171.525 0 60
    endloop
  endfacet
  facet normal 0 0 1
    outer loop
      vertex 9.0379 3.31097 60
      vertex 0.720245 0 60
      vertex 9.64821 3 60
    endloop
  endfacet
  facet normal 0 0 1
    outer loop
      vertex 9 3.42764 60
      vertex 0.720245 0 60
      vertex 9.0379 3.31097 60
    endloop
  endfacet
  facet normal 0 0 1
    outer loop
      vertex 9 51.8518 60
      vertex 0.309784 54.8878 60
      vertex 0 54.2798 60
    endloop
  endfacet
  facet normal 0 0 1
    outer loop
      vertex 0.568192 55.612 60
      vertex 0.777695 56.1337 60
      vertex 0.575516 55.6456 60
    endloop
  endfacet
  facet normal 0 0 1
    outer loop
      vertex 9 51.8518 60
      vertex 0.568192 55.612 60
      vertex 0.309784 54.8878 60
    endloop
  endfacet
  facet normal 0 0 1
    outer loop
      vertex 9 51.8518 60
      vertex 0 54.2798 60
      vertex 9 3.42764 60
    endloop
  endfacet
  facet normal 0 0 1
    outer loop
      vertex 0 0.475159 60
      vertex 9 3.42764 60
      vertex 0 54.2798 60
    endloop
  endfacet
  facet normal 0 0 1
    outer loop
      vertex 9 3.42764 60
      vertex 0 0.475159 60
      vertex 0.720245 0 60
    endloop
  endfacet
  facet normal 0 0 1
    outer loop
      vertex 0.720245 0 60
      vertex 0 0.475159 60
      vertex 0.0421143 0.345535 60
    endloop
  endfacet
  facet normal 0 0 1
    outer loop
      vertex 163.8 66 60
      vertex 172 69.5248 60
      vertex 171.962 69.641 60
    endloop
  endfacet
  facet normal 0 0 1
    outer loop
      vertex 171.525 0 60
      vertex 172 0.720245 60
      vertex 172 69.5248 60
    endloop
  endfacet
  facet normal 0 0 1
    outer loop
      vertex 46.8565 65.4626 60
      vertex 46.8 66 60
      vertex 46.8 65.3518 60
    endloop
  endfacet
  facet normal 0.453992 0.891006 -0
    outer loop
      vertex 9.64821 3 10
      vertex 9.0379 3.31097 60
      vertex 9.64821 3 60
    endloop
  endfacet
  facet normal 0.453992 0.891006 0
    outer loop
      vertex 9.0379 3.31097 60
      vertex 9.64821 3 10
      vertex 9.0379 3.31097 10
    endloop
  endfacet
  facet normal 0.951077 0.308955 0
    outer loop
      vertex 9.0379 3.31097 60
      vertex 9 3.42764 10
      vertex 9 3.42764 60
    endloop
  endfacet
  facet normal 0.951077 0.308955 0
    outer loop
      vertex 9 3.42764 10
      vertex 9.0379 3.31097 60
      vertex 9.0379 3.31097 10
    endloop
  endfacet
  facet normal 1 -0 0
    outer loop
      vertex 9 3.42764 60
      vertex 9 51.8518 10
      vertex 9 51.8518 60
    endloop
  endfacet
  facet normal 1 0 0
    outer loop
      vertex 9 51.8518 10
      vertex 9 3.42764 60
      vertex 9 3.42764 10
    endloop
  endfacet
  facet normal 0.891021 -0.453962 0
    outer loop
      vertex 9 51.8518 60
      vertex 9.27879 52.399 10
      vertex 9.27879 52.399 60
    endloop
  endfacet
  facet normal 0.891021 -0.453962 0
    outer loop
      vertex 9.27879 52.399 10
      vertex 9 51.8518 60
      vertex 9 51.8518 10
    endloop
  endfacet
  facet normal 0.941836 -0.336073 0
    outer loop
      vertex 9.27879 52.399 60
      vertex 9.51137 53.0508 10
      vertex 9.51137 53.0508 60
    endloop
  endfacet
  facet normal 0.941836 -0.336073 0
    outer loop
      vertex 9.51137 53.0508 10
      vertex 9.27879 52.399 60
      vertex 9.27879 52.399 10
    endloop
  endfacet
  facet normal 0.97701 -0.213195 0
    outer loop
      vertex 9.51137 53.0508 60
      vertex 9.51796 53.081 10
      vertex 9.51796 53.081 60
    endloop
  endfacet
  facet normal 0.97701 -0.213195 0
    outer loop
      vertex 9.51796 53.081 10
      vertex 9.51137 53.0508 60
      vertex 9.51137 53.0508 10
    endloop
  endfacet
  facet normal 0.923883 -0.382676 0
    outer loop
      vertex 9.51796 53.081 60
      vertex 9.69992 53.5203 10
      vertex 9.69992 53.5203 60
    endloop
  endfacet
  facet normal 0.923883 -0.382676 0
    outer loop
      vertex 9.69992 53.5203 10
      vertex 9.51796 53.081 60
      vertex 9.51796 53.081 10
    endloop
  endfacet
  facet normal 0.841259 -0.540632 0
    outer loop
      vertex 9.69992 53.5203 60
      vertex 10.4344 54.6632 10
      vertex 10.4344 54.6632 60
    endloop
  endfacet
  facet normal 0.841259 -0.540632 0
    outer loop
      vertex 10.4344 54.6632 10
      vertex 9.69992 53.5203 60
      vertex 9.69992 53.5203 10
    endloop
  endfacet
  facet normal 0.755793 -0.654811 0
    outer loop
      vertex 10.4344 54.6632 60
      vertex 10.6847 54.9521 10
      vertex 10.6847 54.9521 60
    endloop
  endfacet
  facet normal 0.755793 -0.654811 0
    outer loop
      vertex 10.6847 54.9521 10
      vertex 10.4344 54.6632 60
      vertex 10.4344 54.6632 10
    endloop
  endfacet
  facet normal 0.654839 -0.755769 0
    outer loop
      vertex 10.6847 54.9521 10
      vertex 11.748 55.8734 60
      vertex 10.6847 54.9521 60
    endloop
  endfacet
  facet normal 0.654839 -0.755769 0
    outer loop
      vertex 11.748 55.8734 60
      vertex 10.6847 54.9521 10
      vertex 11.748 55.8734 10
    endloop
  endfacet
  facet normal 0.540678 -0.841229 0
    outer loop
      vertex 11.748 55.8734 10
      vertex 12.0696 56.0801 60
      vertex 11.748 55.8734 60
    endloop
  endfacet
  facet normal 0.540678 -0.841229 0
    outer loop
      vertex 12.0696 56.0801 60
      vertex 11.748 55.8734 10
      vertex 12.0696 56.0801 10
    endloop
  endfacet
  facet normal 0.415409 -0.909635 0
    outer loop
      vertex 12.0696 56.0801 10
      vertex 13.3495 56.6646 60
      vertex 12.0696 56.0801 60
    endloop
  endfacet
  facet normal 0.415409 -0.909635 0
    outer loop
      vertex 13.3495 56.6646 60
      vertex 12.0696 56.0801 10
      vertex 13.3495 56.6646 10
    endloop
  endfacet
  facet normal 0.281798 -0.959474 0
    outer loop
      vertex 13.3495 56.6646 10
      vertex 13.7162 56.7723 60
      vertex 13.3495 56.6646 60
    endloop
  endfacet
  facet normal 0.281798 -0.959474 0
    outer loop
      vertex 13.7162 56.7723 60
      vertex 13.3495 56.6646 10
      vertex 13.7162 56.7723 10
    endloop
  endfacet
  facet normal 0.142315 -0.989821 0
    outer loop
      vertex 13.7162 56.7723 10
      vertex 15.2046 56.9863 60
      vertex 13.7162 56.7723 60
    endloop
  endfacet
  facet normal 0.142315 -0.989821 0
    outer loop
      vertex 15.2046 56.9863 60
      vertex 13.7162 56.7723 10
      vertex 15.2046 56.9863 10
    endloop
  endfacet
  facet normal 0.071247 -0.997459 0
    outer loop
      vertex 15.2046 56.9863 10
      vertex 15.3964 57 60
      vertex 15.2046 56.9863 60
    endloop
  endfacet
  facet normal 0.071247 -0.997459 0
    outer loop
      vertex 15.3964 57 60
      vertex 15.2046 56.9863 10
      vertex 15.3964 57 10
    endloop
  endfacet
  facet normal 0 -1 0
    outer loop
      vertex 15.3964 57 10
      vertex 44.1 57 60
      vertex 15.3964 57 60
    endloop
  endfacet
  facet normal 0 -1 -0
    outer loop
      vertex 44.1 57 60
      vertex 15.3964 57 10
      vertex 44.1 57 10
    endloop
  endfacet
  facet normal 0.454005 -0.890999 0
    outer loop
      vertex 44.1 57 10
      vertex 46.2843 58.113 60
      vertex 44.1 57 60
    endloop
  endfacet
  facet normal 0.454005 -0.890999 0
    outer loop
      vertex 46.2843 58.113 60
      vertex 44.1 57 10
      vertex 46.2843 58.113 10
    endloop
  endfacet
  facet normal 0.951047 -0.309045 0
    outer loop
      vertex 46.2843 58.113 60
      vertex 46.8 59.7 10
      vertex 46.8 59.7 60
    endloop
  endfacet
  facet normal 0.951047 -0.309045 0
    outer loop
      vertex 46.8 59.7 10
      vertex 46.2843 58.113 60
      vertex 46.2843 58.113 10
    endloop
  endfacet
  facet normal 1 -0 0
    outer loop
      vertex 46.8 59.7 60
      vertex 46.8 65.3518 10
      vertex 46.8 65.3518 60
    endloop
  endfacet
  facet normal 1 0 0
    outer loop
      vertex 46.8 65.3518 10
      vertex 46.8 59.7 60
      vertex 46.8 59.7 10
    endloop
  endfacet
  facet normal 0.890861 -0.454275 0
    outer loop
      vertex 46.8 65.3518 60
      vertex 46.8565 65.4626 10
      vertex 46.8565 65.4626 60
    endloop
  endfacet
  facet normal 0.890861 -0.454275 0
    outer loop
      vertex 46.8565 65.4626 10
      vertex 46.8 65.3518 60
      vertex 46.8 65.3518 10
    endloop
  endfacet
  facet normal 0.994519 0.10456 0
    outer loop
      vertex 46.8565 65.4626 60
      vertex 46.8 66 10
      vertex 46.8 66 60
    endloop
  endfacet
  facet normal 0.994519 0.10456 0
    outer loop
      vertex 46.8 66 10
      vertex 46.8565 65.4626 60
      vertex 46.8565 65.4626 10
    endloop
  endfacet
  facet normal 0.994522 -0.104532 0
    outer loop
      vertex 46.8 66 60
      vertex 48.0784 78.1628 10
      vertex 48.0784 78.1628 60
    endloop
  endfacet
  facet normal 0.994522 -0.104532 0
    outer loop
      vertex 48.0784 78.1628 10
      vertex 46.8 66 60
      vertex 46.8 66 10
    endloop
  endfacet
  facet normal 0.951057 -0.309014 0
    outer loop
      vertex 48.0784 78.1628 60
      vertex 51.8576 89.7941 10
      vertex 51.8576 89.7941 60
    endloop
  endfacet
  facet normal 0.951057 -0.309014 0
    outer loop
      vertex 51.8576 89.7941 10
      vertex 48.0784 78.1628 60
      vertex 48.0784 78.1628 10
    endloop
  endfacet
  facet normal 0.866017 -0.500015 0
    outer loop
      vertex 51.8576 89.7941 60
      vertex 57.9725 100.385 10
      vertex 57.9725 100.385 60
    endloop
  endfacet
  facet normal 0.866017 -0.500015 0
    outer loop
      vertex 57.9725 100.385 10
      vertex 51.8576 89.7941 60
      vertex 51.8576 89.7941 10
    endloop
  endfacet
  facet normal 0.743164 -0.669109 0
    outer loop
      vertex 57.9725 100.385 60
      vertex 66.1558 109.474 10
      vertex 66.1558 109.474 60
    endloop
  endfacet
  facet normal 0.743164 -0.669109 0
    outer loop
      vertex 66.1558 109.474 10
      vertex 57.9725 100.385 60
      vertex 57.9725 100.385 10
    endloop
  endfacet
  facet normal 0.587755 -0.809039 0
    outer loop
      vertex 66.1558 109.474 10
      vertex 76.05 116.662 60
      vertex 66.1558 109.474 60
    endloop
  endfacet
  facet normal 0.587755 -0.809039 0
    outer loop
      vertex 76.05 116.662 60
      vertex 66.1558 109.474 10
      vertex 76.05 116.662 10
    endloop
  endfacet
  facet normal 0.406783 -0.913525 0
    outer loop
      vertex 76.05 116.662 10
      vertex 87.2225 121.637 60
      vertex 76.05 116.662 60
    endloop
  endfacet
  facet normal 0.406783 -0.913525 0
    outer loop
      vertex 87.2225 121.637 60
      vertex 76.05 116.662 10
      vertex 87.2225 121.637 10
    endloop
  endfacet
  facet normal 0.207933 -0.978143 0
    outer loop
      vertex 87.2225 121.637 10
      vertex 99.1851 124.18 60
      vertex 87.2225 121.637 60
    endloop
  endfacet
  facet normal 0.207933 -0.978143 0
    outer loop
      vertex 99.1851 124.18 60
      vertex 87.2225 121.637 10
      vertex 99.1851 124.18 10
    endloop
  endfacet
  facet normal 0 -1 0
    outer loop
      vertex 99.1851 124.18 10
      vertex 111.415 124.18 60
      vertex 99.1851 124.18 60
    endloop
  endfacet
  facet normal 0 -1 -0
    outer loop
      vertex 111.415 124.18 60
      vertex 99.1851 124.18 10
      vertex 111.415 124.18 10
    endloop
  endfacet
  facet normal -0.207943 -0.978141 0
    outer loop
      vertex 111.415 124.18 10
      vertex 123.377 121.637 60
      vertex 111.415 124.18 60
    endloop
  endfacet
  facet normal -0.207943 -0.978141 -0
    outer loop
      vertex 123.377 121.637 60
      vertex 111.415 124.18 10
      vertex 123.377 121.637 10
    endloop
  endfacet
  facet normal -0.406768 -0.913531 0
    outer loop
      vertex 123.377 121.637 10
      vertex 134.55 116.662 60
      vertex 123.377 121.637 60
    endloop
  endfacet
  facet normal -0.406768 -0.913531 -0
    outer loop
      vertex 134.55 116.662 60
      vertex 123.377 121.637 10
      vertex 134.55 116.662 10
    endloop
  endfacet
  facet normal -0.587763 -0.809033 0
    outer loop
      vertex 134.55 116.662 10
      vertex 144.444 109.474 60
      vertex 134.55 116.662 60
    endloop
  endfacet
  facet normal -0.587763 -0.809033 -0
    outer loop
      vertex 144.444 109.474 60
      vertex 134.55 116.662 10
      vertex 144.444 109.474 10
    endloop
  endfacet
  facet normal -0.743176 -0.669096 0
    outer loop
      vertex 152.627 100.385 10
      vertex 144.444 109.474 60
      vertex 144.444 109.474 10
    endloop
  endfacet
  facet normal -0.743176 -0.669096 0
    outer loop
      vertex 144.444 109.474 60
      vertex 152.627 100.385 10
      vertex 152.627 100.385 60
    endloop
  endfacet
  facet normal -0.866013 -0.500021 0
    outer loop
      vertex 158.742 89.7941 10
      vertex 152.627 100.385 60
      vertex 152.627 100.385 10
    endloop
  endfacet
  facet normal -0.866013 -0.500021 0
    outer loop
      vertex 152.627 100.385 60
      vertex 158.742 89.7941 10
      vertex 158.742 89.7941 60
    endloop
  endfacet
  facet normal -0.951038 -0.309073 0
    outer loop
      vertex 162.522 78.1628 10
      vertex 158.742 89.7941 60
      vertex 158.742 89.7941 10
    endloop
  endfacet
  facet normal -0.951038 -0.309073 0
    outer loop
      vertex 158.742 89.7941 60
      vertex 162.522 78.1628 10
      vertex 162.522 78.1628 60
    endloop
  endfacet
  facet normal -0.994525 -0.104499 0
    outer loop
      vertex 163.8 66 10
      vertex 162.522 78.1628 60
      vertex 162.522 78.1628 10
    endloop
  endfacet
  facet normal -0.994525 -0.104499 0
    outer loop
      vertex 162.522 78.1628 60
      vertex 163.8 66 10
      vertex 163.8 66 60
    endloop
  endfacet
  facet normal -0.994509 0.104653 0
    outer loop
      vertex 163.766 65.6769 10
      vertex 163.8 66 60
      vertex 163.8 66 10
    endloop
  endfacet
  facet normal -0.994509 0.104653 0
    outer loop
      vertex 163.8 66 60
      vertex 163.766 65.6769 10
      vertex 163.766 65.6769 60
    endloop
  endfacet
  facet normal -0.950934 -0.309395 0
    outer loop
      vertex 163.8 65.5724 10
      vertex 163.766 65.6769 60
      vertex 163.766 65.6769 10
    endloop
  endfacet
  facet normal -0.950934 -0.309395 0
    outer loop
      vertex 163.766 65.6769 60
      vertex 163.8 65.5724 10
      vertex 163.8 65.5724 60
    endloop
  endfacet
  facet normal -1 0 0
    outer loop
      vertex 163.8 3.64821 10
      vertex 163.8 65.5724 60
      vertex 163.8 65.5724 10
    endloop
  endfacet
  facet normal -1 -0 0
    outer loop
      vertex 163.8 65.5724 60
      vertex 163.8 3.64821 10
      vertex 163.8 3.64821 60
    endloop
  endfacet
  facet normal -0.890988 0.454027 0
    outer loop
      vertex 163.489 3.0379 10
      vertex 163.8 3.64821 60
      vertex 163.8 3.64821 10
    endloop
  endfacet
  facet normal -0.890988 0.454027 0
    outer loop
      vertex 163.8 3.64821 60
      vertex 163.489 3.0379 10
      vertex 163.489 3.0379 60
    endloop
  endfacet
  facet normal -0.308167 0.951332 0
    outer loop
      vertex 163.489 3.0379 10
      vertex 163.372 3 60
      vertex 163.489 3.0379 60
    endloop
  endfacet
  facet normal -0.308167 0.951332 0
    outer loop
      vertex 163.372 3 60
      vertex 163.489 3.0379 10
      vertex 163.372 3 10
    endloop
  endfacet
  facet normal 0 1 -0
    outer loop
      vertex 163.372 3 10
      vertex 9.64821 3 60
      vertex 163.372 3 60
    endloop
  endfacet
  facet normal 0 1 0
    outer loop
      vertex 9.64821 3 60
      vertex 163.372 3 10
      vertex 9.64821 3 10
    endloop
  endfacet
endsolid OpenSCAD_Model
