solid OpenSCAD_Model
  facet normal 0 0 -1
    outer loop
      vertex 171.525 0 0
      vertex 172 69.5248 0
      vertex 172 0.720245 0
    endloop
  endfacet
  facet normal 0 0 -1
    outer loop
      vertex 171.525 0 0
      vertex 172 0.720245 0
      vertex 171.654 0.0421143 0
    endloop
  endfacet
  facet normal 0 0 -1
    outer loop
      vertex 41.427 61.2366 0
      vertex 172 69.5248 0
      vertex 171.525 0 0
    endloop
  endfacet
  facet normal 0 0 -1
    outer loop
      vertex 171.962 69.641 0
      vertex 170.58 83.5143 0
      vertex 172 70 0
    endloop
  endfacet
  facet normal 0 -0 -1
    outer loop
      vertex 42 63 0
      vertex 172 69.5248 0
      vertex 41.427 61.2366 0
    endloop
  endfacet
  facet normal 0 -0 -1
    outer loop
      vertex 42.0628 69.4029 0
      vertex 171.962 69.641 0
      vertex 42 63 0
    endloop
  endfacet
  facet normal -0 0 -1
    outer loop
      vertex 171.962 69.641 0
      vertex 42.0628 69.4029 0
      vertex 170.58 83.5143 0
    endloop
  endfacet
  facet normal -0 0 -1
    outer loop
      vertex 170.58 83.5143 0
      vertex 42.0628 69.4029 0
      vertex 166.38 96.4379 0
    endloop
  endfacet
  facet normal -0 0 -1
    outer loop
      vertex 166.38 96.4379 0
      vertex 42.0628 69.4029 0
      vertex 159.586 108.206 0
    endloop
  endfacet
  facet normal -0 0 -1
    outer loop
      vertex 159.586 108.206 0
      vertex 42.0628 69.4029 0
      vertex 150.493 118.304 0
    endloop
  endfacet
  facet normal -0 0 -1
    outer loop
      vertex 150.493 118.304 0
      vertex 42.0628 69.4029 0
      vertex 139.5 126.292 0
    endloop
  endfacet
  facet normal -0 0 -1
    outer loop
      vertex 139.5 126.292 0
      vertex 42.0628 69.4029 0
      vertex 127.086 131.819 0
    endloop
  endfacet
  facet normal -0 0 -1
    outer loop
      vertex 127.086 131.819 0
      vertex 42.0628 69.4029 0
      vertex 113.794 134.644 0
    endloop
  endfacet
  facet normal -0 0 -1
    outer loop
      vertex 113.794 134.644 0
      vertex 42.0628 69.4029 0
      vertex 100.206 134.644 0
    endloop
  endfacet
  facet normal 0 0 -1
    outer loop
      vertex 100.206 134.644 0
      vertex 42.0628 69.4029 0
      vertex 86.9139 131.819 0
    endloop
  endfacet
  facet normal 0 0 -1
    outer loop
      vertex 86.9139 131.819 0
      vertex 42.0628 69.4029 0
      vertex 74.5 126.292 0
    endloop
  endfacet
  facet normal 0 0 -1
    outer loop
      vertex 63.5065 118.304 0
      vertex 42.0628 69.4029 0
      vertex 54.4139 108.206 0
    endloop
  endfacet
  facet normal 0 0 -1
    outer loop
      vertex 54.4139 108.206 0
      vertex 42.0628 69.4029 0
      vertex 47.6195 96.4379 0
    endloop
  endfacet
  facet normal 0 0 -1
    outer loop
      vertex 47.6195 96.4379 0
      vertex 42.0628 69.4029 0
      vertex 43.4204 83.5143 0
    endloop
  endfacet
  facet normal 0 0 -1
    outer loop
      vertex 74.5 126.292 0
      vertex 42.0628 69.4029 0
      vertex 63.5065 118.304 0
    endloop
  endfacet
  facet normal -0 0 -1
    outer loop
      vertex 172 69.5248 0
      vertex 42 63 0
      vertex 171.962 69.641 0
    endloop
  endfacet
  facet normal 0 0 -1
    outer loop
      vertex 0.720245 0 0
      vertex 41.427 61.2366 0
      vertex 171.525 0 0
    endloop
  endfacet
  facet normal 0 0 -1
    outer loop
      vertex 41.427 61.2366 0
      vertex 0.720245 0 0
      vertex 39 60 0
    endloop
  endfacet
  facet normal 0 0 -1
    outer loop
      vertex 0 54.2798 0
      vertex 39 60 0
      vertex 0.720245 0 0
    endloop
  endfacet
  facet normal -0 0 -1
    outer loop
      vertex 39 60 0
      vertex 0 54.2798 0
      vertex 7.10709 60 0
    endloop
  endfacet
  facet normal 0 -0 -1
    outer loop
      vertex 0.309784 54.8878 0
      vertex 7.10709 60 0
      vertex 0 54.2798 0
    endloop
  endfacet
  facet normal 0 0 -1
    outer loop
      vertex 7.10709 60 0
      vertex 0.309784 54.8878 0
      vertex 6.89403 59.9848 0
    endloop
  endfacet
  facet normal 0 -0 -1
    outer loop
      vertex 0.568192 55.612 0
      vertex 6.89403 59.9848 0
      vertex 0.309784 54.8878 0
    endloop
  endfacet
  facet normal 0 0 -1
    outer loop
      vertex 6.89403 59.9848 0
      vertex 0.568192 55.612 0
      vertex 5.2402 59.747 0
    endloop
  endfacet
  facet normal 0 0 -1
    outer loop
      vertex 5.2402 59.747 0
      vertex 0.568192 55.612 0
      vertex 4.83273 59.6273 0
    endloop
  endfacet
  facet normal 0 0 -1
    outer loop
      vertex 3.41071 58.9779 0
      vertex 0.568192 55.612 0
      vertex 3.05334 58.7483 0
    endloop
  endfacet
  facet normal 0 0 -1
    outer loop
      vertex 3.05334 58.7483 0
      vertex 0.568192 55.612 0
      vertex 1.8719 57.7245 0
    endloop
  endfacet
  facet normal 0 0 -1
    outer loop
      vertex 1.8719 57.7245 0
      vertex 0.568192 55.612 0
      vertex 1.59375 57.4035 0
    endloop
  endfacet
  facet normal 0 0 -1
    outer loop
      vertex 0.777695 56.1337 0
      vertex 0.568192 55.612 0
      vertex 0.575516 55.6456 0
    endloop
  endfacet
  facet normal 0 0 -1
    outer loop
      vertex 1.59375 57.4035 0
      vertex 0.568192 55.612 0
      vertex 0.777695 56.1337 0
    endloop
  endfacet
  facet normal 0 0 -1
    outer loop
      vertex 0 0.475159 0
      vertex 0.720245 0 0
      vertex 0.0421143 0.345535 0
    endloop
  endfacet
  facet normal 0 0 -1
    outer loop
      vertex 0 54.2798 0
      vertex 0.720245 0 0
      vertex 0 0.475159 0
    endloop
  endfacet
  facet normal 0 0 -1
    outer loop
      vertex 4.83273 59.6273 0
      vertex 0.568192 55.612 0
      vertex 3.41071 58.9779 0
    endloop
  endfacet
  facet normal 0 0 -1
    outer loop
      vertex 43.4204 83.5143 0
      vertex 42.0628 69.4029 0
      vertex 42 70 0
    endloop
  endfacet
  facet normal 0 0 -1
    outer loop
      vertex 42.0628 69.4029 0
      vertex 42 63 0
      vertex 42 69.2798 0
    endloop
  endfacet
  facet normal 0 0 1
    outer loop
      vertex 168.973 71.0509 10
      vertex 167.651 83.627 10
      vertex 168.973 70.6978 10
    endloop
  endfacet
  facet normal 0 0 1
    outer loop
      vertex 47 66 10
      vertex 169 70.3498 10
      vertex 168.973 70.6978 10
    endloop
  endfacet
  facet normal 0 0 1
    outer loop
      vertex 47.0274 70.4773 10
      vertex 168.973 70.6978 10
      vertex 167.651 83.627 10
    endloop
  endfacet
  facet normal 0 0 1
    outer loop
      vertex 47.0274 70.4773 10
      vertex 167.651 83.627 10
      vertex 167.63 83.7268 10
    endloop
  endfacet
  facet normal 0 0 1
    outer loop
      vertex 47.0274 70.4773 10
      vertex 167.63 83.7268 10
      vertex 163.722 95.7532 10
    endloop
  endfacet
  facet normal 0 0 1
    outer loop
      vertex 47.0274 70.4773 10
      vertex 163.722 95.7532 10
      vertex 163.68 95.8465 10
    endloop
  endfacet
  facet normal 0 0 1
    outer loop
      vertex 47.0274 70.4773 10
      vertex 163.68 95.8465 10
      vertex 157.358 106.797 10
    endloop
  endfacet
  facet normal 0 0 1
    outer loop
      vertex 47.0274 70.4773 10
      vertex 157.358 106.797 10
      vertex 157.298 106.88 10
    endloop
  endfacet
  facet normal 0 0 1
    outer loop
      vertex 47.0274 70.4773 10
      vertex 157.298 106.88 10
      vertex 148.837 116.277 10
    endloop
  endfacet
  facet normal 0 0 1
    outer loop
      vertex 47.0274 70.4773 10
      vertex 148.837 116.277 10
      vertex 148.761 116.346 10
    endloop
  endfacet
  facet normal 0 0 1
    outer loop
      vertex 47.0274 70.4773 10
      vertex 148.761 116.346 10
      vertex 138.53 123.778 10
    endloop
  endfacet
  facet normal 0 0 1
    outer loop
      vertex 47.0274 70.4773 10
      vertex 138.53 123.778 10
      vertex 138.442 123.829 10
    endloop
  endfacet
  facet normal 0 0 1
    outer loop
      vertex 47.0274 70.4773 10
      vertex 138.442 123.829 10
      vertex 126.89 128.973 10
    endloop
  endfacet
  facet normal 0 0 1
    outer loop
      vertex 47.0274 70.4773 10
      vertex 126.89 128.973 10
      vertex 126.793 129.004 10
    endloop
  endfacet
  facet normal 0 0 1
    outer loop
      vertex 47.0274 70.4773 10
      vertex 126.793 129.004 10
      vertex 114.424 131.633 10
    endloop
  endfacet
  facet normal 0 0 1
    outer loop
      vertex 47.0274 70.4773 10
      vertex 114.424 131.633 10
      vertex 114.323 131.644 10
    endloop
  endfacet
  facet normal 0 0 1
    outer loop
      vertex 47.0274 70.4773 10
      vertex 114.323 131.644 10
      vertex 101.677 131.644 10
    endloop
  endfacet
  facet normal 0 0 1
    outer loop
      vertex 47.0274 70.4773 10
      vertex 101.677 131.644 10
      vertex 101.576 131.633 10
    endloop
  endfacet
  facet normal 0 0 1
    outer loop
      vertex 47.0274 70.4773 10
      vertex 101.576 131.633 10
      vertex 89.2068 129.004 10
    endloop
  endfacet
  facet normal 0 0 1
    outer loop
      vertex 47.0274 70.4773 10
      vertex 89.2068 129.004 10
      vertex 89.1099 128.973 10
    endloop
  endfacet
  facet normal 0 0 1
    outer loop
      vertex 47.0274 70.4773 10
      vertex 89.1099 128.973 10
      vertex 77.5579 123.829 10
    endloop
  endfacet
  facet normal 0 0 1
    outer loop
      vertex 47.0274 70.4773 10
      vertex 77.5579 123.829 10
      vertex 77.4695 123.778 10
    endloop
  endfacet
  facet normal 0 0 1
    outer loop
      vertex 47.0274 70.4773 10
      vertex 77.4695 123.778 10
      vertex 67.2393 116.346 10
    endloop
  endfacet
  facet normal 0 0 1
    outer loop
      vertex 47.0274 70.4773 10
      vertex 67.2393 116.346 10
      vertex 67.1634 116.277 10
    endloop
  endfacet
  facet normal 0 0 1
    outer loop
      vertex 47.0274 70.4773 10
      vertex 67.1634 116.277 10
      vertex 58.7021 106.88 10
    endloop
  endfacet
  facet normal 0 0 1
    outer loop
      vertex 47.0274 70.4773 10
      vertex 58.7021 106.88 10
      vertex 58.6421 106.797 10
    endloop
  endfacet
  facet normal 0 0 1
    outer loop
      vertex 47.0274 70.4773 10
      vertex 58.6421 106.797 10
      vertex 52.3195 95.8465 10
    endloop
  endfacet
  facet normal 0 0 1
    outer loop
      vertex 47.0274 70.4773 10
      vertex 52.3195 95.8465 10
      vertex 52.278 95.7532 10
    endloop
  endfacet
  facet normal 0 0 1
    outer loop
      vertex 47.0274 70.4773 10
      vertex 52.278 95.7532 10
      vertex 48.3704 83.7268 10
    endloop
  endfacet
  facet normal 0 0 1
    outer loop
      vertex 47.0274 70.4773 10
      vertex 48.3704 83.7268 10
      vertex 48.3492 83.627 10
    endloop
  endfacet
  facet normal 0 0 1
    outer loop
      vertex 47.0274 70.4773 10
      vertex 48.3492 83.627 10
      vertex 47.0274 71.051 10
    endloop
  endfacet
  facet normal 0 0 1
    outer loop
      vertex 168.973 70.6978 10
      vertex 47.0274 70.4773 10
      vertex 47 66 10
    endloop
  endfacet
  facet normal 0 0 1
    outer loop
      vertex 47 66 10
      vertex 47.0274 70.4773 10
      vertex 47 70.2798 10
    endloop
  endfacet
  facet normal 0 0 1
    outer loop
      vertex 169 70.3498 10
      vertex 47 66 10
      vertex 46.7896 64.0653 10
    endloop
  endfacet
  facet normal 0 0 1
    outer loop
      vertex 169 70.3498 10
      vertex 46.7896 64.0653 10
      vertex 46.1682 62.221 10
    endloop
  endfacet
  facet normal 0 0 1
    outer loop
      vertex 169 70.3498 10
      vertex 46.1682 62.221 10
      vertex 169 5 10
    endloop
  endfacet
  facet normal -0 0 1
    outer loop
      vertex 45.1648 60.5534 10
      vertex 169 5 10
      vertex 46.1682 62.221 10
    endloop
  endfacet
  facet normal -0 0 1
    outer loop
      vertex 43.8265 59.1405 10
      vertex 169 5 10
      vertex 45.1648 60.5534 10
    endloop
  endfacet
  facet normal -0 0 1
    outer loop
      vertex 42.2157 58.0484 10
      vertex 169 5 10
      vertex 43.8265 59.1405 10
    endloop
  endfacet
  facet normal 0 0 1
    outer loop
      vertex 5 5 10
      vertex 42.2157 58.0484 10
      vertex 40.4078 57.328 10
    endloop
  endfacet
  facet normal 0 0 1
    outer loop
      vertex 5 5 10
      vertex 40.4078 57.328 10
      vertex 38 57 10
    endloop
  endfacet
  facet normal 0 0 1
    outer loop
      vertex 5 54.2146 10
      vertex 38 57 10
      vertex 8.28615 57 10
    endloop
  endfacet
  facet normal 0 0 1
    outer loop
      vertex 5.18527 54.8465 10
      vertex 8.28615 57 10
      vertex 7.16643 56.839 10
    endloop
  endfacet
  facet normal 0 0 1
    outer loop
      vertex 5.18527 54.8465 10
      vertex 7.16643 56.839 10
      vertex 6.40028 56.4891 10
    endloop
  endfacet
  facet normal 0 0 1
    outer loop
      vertex 5.18527 54.8465 10
      vertex 6.40028 56.4891 10
      vertex 5.76385 55.9377 10
    endloop
  endfacet
  facet normal 0 0 1
    outer loop
      vertex 5.18527 54.8465 10
      vertex 5.76385 55.9377 10
      vertex 5.35997 55.3092 10
    endloop
  endfacet
  facet normal 0 0 1
    outer loop
      vertex 5.18527 54.8465 10
      vertex 5.35997 55.3092 10
      vertex 5.32973 55.2514 10
    endloop
  endfacet
  facet normal 0 0 1
    outer loop
      vertex 8.28615 57 10
      vertex 5.18527 54.8465 10
      vertex 5 54.2146 10
    endloop
  endfacet
  facet normal 0 0 1
    outer loop
      vertex 5 54.2146 10
      vertex 5.18527 54.8465 10
      vertex 5.10956 54.6709 10
    endloop
  endfacet
  facet normal 0 0 1
    outer loop
      vertex 38 57 10
      vertex 5 54.2146 10
      vertex 5 5 10
    endloop
  endfacet
  facet normal 0 0 1
    outer loop
      vertex 42.2157 58.0484 10
      vertex 5 5 10
      vertex 169 5 10
    endloop
  endfacet
  facet normal -0 0 1
    outer loop
      vertex 46.981 70.4773 10
      vertex 47 70.2798 10
      vertex 47.0274 70.4773 10
    endloop
  endfacet
  facet normal 0 0 1
    outer loop
      vertex 47 70.2798 10
      vertex 46.981 70.4773 10
      vertex 46.9803 70.2798 10
    endloop
  endfacet
  facet normal 0.890754 -0.454486 0
    outer loop
      vertex 171.654 0.0421143 60
      vertex 172 0.720245 0
      vertex 172 0.720245 60
    endloop
  endfacet
  facet normal 0.890754 -0.454486 0
    outer loop
      vertex 172 0.720245 0
      vertex 171.654 0.0421143 60
      vertex 171.654 0.0421143 0
    endloop
  endfacet
  facet normal 1 -0 0
    outer loop
      vertex 172 0.720245 60
      vertex 172 69.5248 0
      vertex 172 69.5248 60
    endloop
  endfacet
  facet normal 1 0 0
    outer loop
      vertex 172 69.5248 0
      vertex 172 0.720245 60
      vertex 172 0.720245 0
    endloop
  endfacet
  facet normal 0.950467 0.310824 0
    outer loop
      vertex 172 69.5248 60
      vertex 171.962 69.641 0
      vertex 171.962 69.641 60
    endloop
  endfacet
  facet normal 0.950467 0.310824 0
    outer loop
      vertex 171.962 69.641 0
      vertex 172 69.5248 60
      vertex 172 69.5248 0
    endloop
  endfacet
  facet normal 0.994445 -0.105262 0
    outer loop
      vertex 171.962 69.641 60
      vertex 172 70 0
      vertex 172 70 60
    endloop
  endfacet
  facet normal 0.994445 -0.105262 0
    outer loop
      vertex 172 70 0
      vertex 171.962 69.641 60
      vertex 171.962 69.641 0
    endloop
  endfacet
  facet normal 0.994525 0.104499 0
    outer loop
      vertex 172 70 60
      vertex 170.58 83.5143 0
      vertex 170.58 83.5143 60
    endloop
  endfacet
  facet normal 0.994525 0.104499 0
    outer loop
      vertex 170.58 83.5143 0
      vertex 172 70 60
      vertex 172 70 0
    endloop
  endfacet
  facet normal 0.951038 0.309075 0
    outer loop
      vertex 170.58 83.5143 60
      vertex 166.38 96.4379 0
      vertex 166.38 96.4379 60
    endloop
  endfacet
  facet normal 0.951038 0.309075 0
    outer loop
      vertex 166.38 96.4379 0
      vertex 170.58 83.5143 60
      vertex 170.58 83.5143 0
    endloop
  endfacet
  facet normal 0.866035 0.499983 0
    outer loop
      vertex 166.38 96.4379 60
      vertex 159.586 108.206 0
      vertex 159.586 108.206 60
    endloop
  endfacet
  facet normal 0.866035 0.499983 0
    outer loop
      vertex 159.586 108.206 0
      vertex 166.38 96.4379 60
      vertex 166.38 96.4379 0
    endloop
  endfacet
  facet normal 0.743118 0.66916 0
    outer loop
      vertex 159.586 108.206 60
      vertex 150.493 118.304 0
      vertex 150.493 118.304 60
    endloop
  endfacet
  facet normal 0.743118 0.66916 0
    outer loop
      vertex 150.493 118.304 0
      vertex 159.586 108.206 60
      vertex 159.586 108.206 0
    endloop
  endfacet
  facet normal 0.587839 0.808978 -0
    outer loop
      vertex 150.493 118.304 0
      vertex 139.5 126.292 60
      vertex 150.493 118.304 60
    endloop
  endfacet
  facet normal 0.587839 0.808978 0
    outer loop
      vertex 139.5 126.292 60
      vertex 150.493 118.304 0
      vertex 139.5 126.292 0
    endloop
  endfacet
  facet normal 0.406732 0.913547 -0
    outer loop
      vertex 139.5 126.292 0
      vertex 127.086 131.819 60
      vertex 139.5 126.292 60
    endloop
  endfacet
  facet normal 0.406732 0.913547 0
    outer loop
      vertex 127.086 131.819 60
      vertex 139.5 126.292 0
      vertex 127.086 131.819 0
    endloop
  endfacet
  facet normal 0.20789 0.978152 -0
    outer loop
      vertex 127.086 131.819 0
      vertex 113.794 134.644 60
      vertex 127.086 131.819 60
    endloop
  endfacet
  facet normal 0.20789 0.978152 0
    outer loop
      vertex 113.794 134.644 60
      vertex 127.086 131.819 0
      vertex 113.794 134.644 0
    endloop
  endfacet
  facet normal 0 1 -0
    outer loop
      vertex 113.794 134.644 0
      vertex 100.206 134.644 60
      vertex 113.794 134.644 60
    endloop
  endfacet
  facet normal 0 1 0
    outer loop
      vertex 100.206 134.644 60
      vertex 113.794 134.644 0
      vertex 100.206 134.644 0
    endloop
  endfacet
  facet normal -0.207889 0.978152 0
    outer loop
      vertex 100.206 134.644 0
      vertex 86.9139 131.819 60
      vertex 100.206 134.644 60
    endloop
  endfacet
  facet normal -0.207889 0.978152 0
    outer loop
      vertex 86.9139 131.819 60
      vertex 100.206 134.644 0
      vertex 86.9139 131.819 0
    endloop
  endfacet
  facet normal -0.406735 0.913546 0
    outer loop
      vertex 86.9139 131.819 0
      vertex 74.5 126.292 60
      vertex 86.9139 131.819 60
    endloop
  endfacet
  facet normal -0.406735 0.913546 0
    outer loop
      vertex 74.5 126.292 60
      vertex 86.9139 131.819 0
      vertex 74.5 126.292 0
    endloop
  endfacet
  facet normal -0.587822 0.808991 0
    outer loop
      vertex 74.5 126.292 0
      vertex 63.5065 118.304 60
      vertex 74.5 126.292 60
    endloop
  endfacet
  facet normal -0.587822 0.808991 0
    outer loop
      vertex 63.5065 118.304 60
      vertex 74.5 126.292 0
      vertex 63.5065 118.304 0
    endloop
  endfacet
  facet normal -0.743133 0.669144 0
    outer loop
      vertex 54.4139 108.206 0
      vertex 63.5065 118.304 60
      vertex 63.5065 118.304 0
    endloop
  endfacet
  facet normal -0.743133 0.669144 0
    outer loop
      vertex 63.5065 118.304 60
      vertex 54.4139 108.206 0
      vertex 54.4139 108.206 60
    endloop
  endfacet
  facet normal -0.866023 0.500005 0
    outer loop
      vertex 47.6195 96.4379 0
      vertex 54.4139 108.206 60
      vertex 54.4139 108.206 0
    endloop
  endfacet
  facet normal -0.866023 0.500005 0
    outer loop
      vertex 54.4139 108.206 60
      vertex 47.6195 96.4379 0
      vertex 47.6195 96.4379 60
    endloop
  endfacet
  facet normal -0.951057 0.309015 0
    outer loop
      vertex 43.4204 83.5143 0
      vertex 47.6195 96.4379 60
      vertex 47.6195 96.4379 0
    endloop
  endfacet
  facet normal -0.951057 0.309015 0
    outer loop
      vertex 47.6195 96.4379 60
      vertex 43.4204 83.5143 0
      vertex 43.4204 83.5143 60
    endloop
  endfacet
  facet normal -0.994522 0.104528 0
    outer loop
      vertex 42 70 0
      vertex 43.4204 83.5143 60
      vertex 43.4204 83.5143 0
    endloop
  endfacet
  facet normal -0.994522 0.104528 0
    outer loop
      vertex 43.4204 83.5143 60
      vertex 42 70 0
      vertex 42 70 60
    endloop
  endfacet
  facet normal -0.994515 -0.104598 0
    outer loop
      vertex 42.0628 69.4029 0
      vertex 42 70 60
      vertex 42 70 0
    endloop
  endfacet
  facet normal -0.994515 -0.104598 0
    outer loop
      vertex 42 70 60
      vertex 42.0628 69.4029 0
      vertex 42.0628 69.4029 60
    endloop
  endfacet
  facet normal -0.89078 0.454435 0
    outer loop
      vertex 42 69.2798 0
      vertex 42.0628 69.4029 60
      vertex 42.0628 69.4029 0
    endloop
  endfacet
  facet normal -0.89078 0.454435 0
    outer loop
      vertex 42.0628 69.4029 60
      vertex 42 69.2798 0
      vertex 42 69.2798 60
    endloop
  endfacet
  facet normal -1 0 0
    outer loop
      vertex 42 63 0
      vertex 42 69.2798 60
      vertex 42 69.2798 0
    endloop
  endfacet
  facet normal -1 -0 0
    outer loop
      vertex 42 69.2798 60
      vertex 42 63 0
      vertex 42 63 60
    endloop
  endfacet
  facet normal -0.951051 0.309035 0
    outer loop
      vertex 41.427 61.2366 0
      vertex 42 63 60
      vertex 42 63 0
    endloop
  endfacet
  facet normal -0.951051 0.309035 0
    outer loop
      vertex 42 63 60
      vertex 41.427 61.2366 0
      vertex 41.427 61.2366 60
    endloop
  endfacet
  facet normal -0.453985 0.891009 0
    outer loop
      vertex 41.427 61.2366 0
      vertex 39 60 60
      vertex 41.427 61.2366 60
    endloop
  endfacet
  facet normal -0.453985 0.891009 0
    outer loop
      vertex 39 60 60
      vertex 41.427 61.2366 0
      vertex 39 60 0
    endloop
  endfacet
  facet normal 0 1 -0
    outer loop
      vertex 39 60 0
      vertex 7.10709 60 60
      vertex 39 60 60
    endloop
  endfacet
  facet normal 0 1 0
    outer loop
      vertex 7.10709 60 60
      vertex 39 60 0
      vertex 7.10709 60 0
    endloop
  endfacet
  facet normal -0.0711605 0.997465 0
    outer loop
      vertex 7.10709 60 0
      vertex 6.89403 59.9848 60
      vertex 7.10709 60 60
    endloop
  endfacet
  facet normal -0.0711605 0.997465 0
    outer loop
      vertex 6.89403 59.9848 60
      vertex 7.10709 60 0
      vertex 6.89403 59.9848 0
    endloop
  endfacet
  facet normal -0.142324 0.98982 0
    outer loop
      vertex 6.89403 59.9848 0
      vertex 5.2402 59.747 60
      vertex 6.89403 59.9848 60
    endloop
  endfacet
  facet normal -0.142324 0.98982 0
    outer loop
      vertex 5.2402 59.747 60
      vertex 6.89403 59.9848 0
      vertex 5.2402 59.747 0
    endloop
  endfacet
  facet normal -0.281854 0.959457 0
    outer loop
      vertex 5.2402 59.747 0
      vertex 4.83273 59.6273 60
      vertex 5.2402 59.747 60
    endloop
  endfacet
  facet normal -0.281854 0.959457 0
    outer loop
      vertex 4.83273 59.6273 60
      vertex 5.2402 59.747 0
      vertex 4.83273 59.6273 0
    endloop
  endfacet
  facet normal -0.415407 0.909636 0
    outer loop
      vertex 4.83273 59.6273 0
      vertex 3.41071 58.9779 60
      vertex 4.83273 59.6273 60
    endloop
  endfacet
  facet normal -0.415407 0.909636 0
    outer loop
      vertex 3.41071 58.9779 60
      vertex 4.83273 59.6273 0
      vertex 3.41071 58.9779 0
    endloop
  endfacet
  facet normal -0.540528 0.841326 0
    outer loop
      vertex 3.41071 58.9779 0
      vertex 3.05334 58.7483 60
      vertex 3.41071 58.9779 60
    endloop
  endfacet
  facet normal -0.540528 0.841326 0
    outer loop
      vertex 3.05334 58.7483 60
      vertex 3.41071 58.9779 0
      vertex 3.05334 58.7483 0
    endloop
  endfacet
  facet normal -0.654889 0.755725 0
    outer loop
      vertex 3.05334 58.7483 0
      vertex 1.8719 57.7245 60
      vertex 3.05334 58.7483 60
    endloop
  endfacet
  facet normal -0.654889 0.755725 0
    outer loop
      vertex 1.8719 57.7245 60
      vertex 3.05334 58.7483 0
      vertex 1.8719 57.7245 0
    endloop
  endfacet
  facet normal -0.755747 0.654863 0
    outer loop
      vertex 1.59375 57.4035 0
      vertex 1.8719 57.7245 60
      vertex 1.8719 57.7245 0
    endloop
  endfacet
  facet normal -0.755747 0.654863 0
    outer loop
      vertex 1.8719 57.7245 60
      vertex 1.59375 57.4035 0
      vertex 1.59375 57.4035 60
    endloop
  endfacet
  facet normal -0.841252 0.540643 0
    outer loop
      vertex 0.777695 56.1337 0
      vertex 1.59375 57.4035 60
      vertex 1.59375 57.4035 0
    endloop
  endfacet
  facet normal -0.841252 0.540643 0
    outer loop
      vertex 1.59375 57.4035 60
      vertex 0.777695 56.1337 0
      vertex 0.777695 56.1337 60
    endloop
  endfacet
  facet normal -0.923879 0.382686 0
    outer loop
      vertex 0.575516 55.6456 0
      vertex 0.777695 56.1337 60
      vertex 0.777695 56.1337 0
    endloop
  endfacet
  facet normal -0.923879 0.382686 0
    outer loop
      vertex 0.777695 56.1337 60
      vertex 0.575516 55.6456 0
      vertex 0.575516 55.6456 60
    endloop
  endfacet
  facet normal -0.977058 0.212975 0
    outer loop
      vertex 0.568192 55.612 0
      vertex 0.575516 55.6456 60
      vertex 0.575516 55.6456 0
    endloop
  endfacet
  facet normal -0.977058 0.212975 0
    outer loop
      vertex 0.575516 55.6456 60
      vertex 0.568192 55.612 0
      vertex 0.568192 55.612 60
    endloop
  endfacet
  facet normal -0.941839 0.336065 0
    outer loop
      vertex 0.309784 54.8878 0
      vertex 0.568192 55.612 60
      vertex 0.568192 55.612 0
    endloop
  endfacet
  facet normal -0.941839 0.336065 0
    outer loop
      vertex 0.568192 55.612 60
      vertex 0.309784 54.8878 0
      vertex 0.309784 54.8878 60
    endloop
  endfacet
  facet normal -0.891011 0.453982 0
    outer loop
      vertex 0 54.2798 0
      vertex 0.309784 54.8878 60
      vertex 0.309784 54.8878 0
    endloop
  endfacet
  facet normal -0.891011 0.453982 0
    outer loop
      vertex 0.309784 54.8878 60
      vertex 0 54.2798 0
      vertex 0 54.2798 60
    endloop
  endfacet
  facet normal -1 0 0
    outer loop
      vertex 0 0.475159 0
      vertex 0 54.2798 60
      vertex 0 54.2798 0
    endloop
  endfacet
  facet normal -1 -0 0
    outer loop
      vertex 0 54.2798 60
      vertex 0 0.475159 0
      vertex 0 0.475159 60
    endloop
  endfacet
  facet normal -0.951063 -0.308996 0
    outer loop
      vertex 0.0421143 0.345535 0
      vertex 0 0.475159 60
      vertex 0 0.475159 0
    endloop
  endfacet
  facet normal -0.951063 -0.308996 0
    outer loop
      vertex 0 0.475159 60
      vertex 0.0421143 0.345535 0
      vertex 0.0421143 0.345535 60
    endloop
  endfacet
  facet normal -0.454001 -0.891001 0
    outer loop
      vertex 0.0421143 0.345535 0
      vertex 0.720245 0 60
      vertex 0.0421143 0.345535 60
    endloop
  endfacet
  facet normal -0.454001 -0.891001 -0
    outer loop
      vertex 0.720245 0 60
      vertex 0.0421143 0.345535 0
      vertex 0.720245 0 0
    endloop
  endfacet
  facet normal 0 -1 0
    outer loop
      vertex 0.720245 0 0
      vertex 171.525 0 60
      vertex 0.720245 0 60
    endloop
  endfacet
  facet normal 0 -1 -0
    outer loop
      vertex 171.525 0 60
      vertex 0.720245 0 0
      vertex 171.525 0 0
    endloop
  endfacet
  facet normal 0.310348 -0.950623 0
    outer loop
      vertex 171.525 0 0
      vertex 171.654 0.0421143 60
      vertex 171.525 0 60
    endloop
  endfacet
  facet normal 0.310348 -0.950623 0
    outer loop
      vertex 171.654 0.0421143 60
      vertex 171.525 0 0
      vertex 171.654 0.0421143 0
    endloop
  endfacet
  facet normal -0 0 1
    outer loop
      vertex 168.973 70.6978 60
      vertex 172 70 60
      vertex 168.973 71.0509 60
    endloop
  endfacet
  facet normal 0 0 1
    outer loop
      vertex 170.58 83.5143 60
      vertex 167.651 83.627 60
      vertex 168.973 71.0509 60
    endloop
  endfacet
  facet normal 0 0 1
    outer loop
      vertex 170.58 83.5143 60
      vertex 167.63 83.7268 60
      vertex 167.651 83.627 60
    endloop
  endfacet
  facet normal 0 0 1
    outer loop
      vertex 166.38 96.4379 60
      vertex 167.63 83.7268 60
      vertex 170.58 83.5143 60
    endloop
  endfacet
  facet normal 0 0 1
    outer loop
      vertex 166.38 96.4379 60
      vertex 163.722 95.7532 60
      vertex 167.63 83.7268 60
    endloop
  endfacet
  facet normal 0 0 1
    outer loop
      vertex 166.38 96.4379 60
      vertex 163.68 95.8465 60
      vertex 163.722 95.7532 60
    endloop
  endfacet
  facet normal 0 0 1
    outer loop
      vertex 159.586 108.206 60
      vertex 163.68 95.8465 60
      vertex 166.38 96.4379 60
    endloop
  endfacet
  facet normal 0 0 1
    outer loop
      vertex 159.586 108.206 60
      vertex 157.358 106.797 60
      vertex 163.68 95.8465 60
    endloop
  endfacet
  facet normal 0 0 1
    outer loop
      vertex 159.586 108.206 60
      vertex 157.298 106.88 60
      vertex 157.358 106.797 60
    endloop
  endfacet
  facet normal 0 0 1
    outer loop
      vertex 150.493 118.304 60
      vertex 157.298 106.88 60
      vertex 159.586 108.206 60
    endloop
  endfacet
  facet normal 0 0 1
    outer loop
      vertex 150.493 118.304 60
      vertex 148.837 116.277 60
      vertex 157.298 106.88 60
    endloop
  endfacet
  facet normal 0 0 1
    outer loop
      vertex 150.493 118.304 60
      vertex 148.761 116.346 60
      vertex 148.837 116.277 60
    endloop
  endfacet
  facet normal -0 0 1
    outer loop
      vertex 138.53 123.778 60
      vertex 150.493 118.304 60
      vertex 139.5 126.292 60
    endloop
  endfacet
  facet normal 0 0 1
    outer loop
      vertex 150.493 118.304 60
      vertex 138.53 123.778 60
      vertex 148.761 116.346 60
    endloop
  endfacet
  facet normal 0 0 1
    outer loop
      vertex 139.5 126.292 60
      vertex 138.442 123.829 60
      vertex 138.53 123.778 60
    endloop
  endfacet
  facet normal -0 0 1
    outer loop
      vertex 126.89 128.973 60
      vertex 139.5 126.292 60
      vertex 127.086 131.819 60
    endloop
  endfacet
  facet normal 0 0 1
    outer loop
      vertex 139.5 126.292 60
      vertex 126.89 128.973 60
      vertex 138.442 123.829 60
    endloop
  endfacet
  facet normal 0 0 1
    outer loop
      vertex 127.086 131.819 60
      vertex 126.793 129.004 60
      vertex 126.89 128.973 60
    endloop
  endfacet
  facet normal 0 0 1
    outer loop
      vertex 127.086 131.819 60
      vertex 114.424 131.633 60
      vertex 126.793 129.004 60
    endloop
  endfacet
  facet normal 0 0 1
    outer loop
      vertex 113.794 134.644 60
      vertex 114.424 131.633 60
      vertex 127.086 131.819 60
    endloop
  endfacet
  facet normal 0 0 1
    outer loop
      vertex 114.424 131.633 60
      vertex 113.794 134.644 60
      vertex 114.323 131.644 60
    endloop
  endfacet
  facet normal 0 0 1
    outer loop
      vertex 113.794 134.644 60
      vertex 101.677 131.644 60
      vertex 114.323 131.644 60
    endloop
  endfacet
  facet normal -0 0 1
    outer loop
      vertex 100.206 134.644 60
      vertex 101.677 131.644 60
      vertex 113.794 134.644 60
    endloop
  endfacet
  facet normal 0 0 1
    outer loop
      vertex 101.677 131.644 60
      vertex 100.206 134.644 60
      vertex 101.576 131.633 60
    endloop
  endfacet
  facet normal 0 0 1
    outer loop
      vertex 100.206 134.644 60
      vertex 89.2068 129.004 60
      vertex 101.576 131.633 60
    endloop
  endfacet
  facet normal -0 0 1
    outer loop
      vertex 86.9139 131.819 60
      vertex 89.2068 129.004 60
      vertex 100.206 134.644 60
    endloop
  endfacet
  facet normal 0 0 1
    outer loop
      vertex 89.2068 129.004 60
      vertex 86.9139 131.819 60
      vertex 89.1099 128.973 60
    endloop
  endfacet
  facet normal 0 0 1
    outer loop
      vertex 86.9139 131.819 60
      vertex 77.5579 123.829 60
      vertex 89.1099 128.973 60
    endloop
  endfacet
  facet normal -0 0 1
    outer loop
      vertex 74.5 126.292 60
      vertex 77.5579 123.829 60
      vertex 86.9139 131.819 60
    endloop
  endfacet
  facet normal 0 0 1
    outer loop
      vertex 77.5579 123.829 60
      vertex 74.5 126.292 60
      vertex 77.4695 123.778 60
    endloop
  endfacet
  facet normal 0 0 1
    outer loop
      vertex 74.5 126.292 60
      vertex 67.2393 116.346 60
      vertex 77.4695 123.778 60
    endloop
  endfacet
  facet normal -0 0 1
    outer loop
      vertex 63.5065 118.304 60
      vertex 67.2393 116.346 60
      vertex 74.5 126.292 60
    endloop
  endfacet
  facet normal 0 0 1
    outer loop
      vertex 67.2393 116.346 60
      vertex 63.5065 118.304 60
      vertex 67.1634 116.277 60
    endloop
  endfacet
  facet normal 0 0 1
    outer loop
      vertex 63.5065 118.304 60
      vertex 58.7021 106.88 60
      vertex 67.1634 116.277 60
    endloop
  endfacet
  facet normal -0 0 1
    outer loop
      vertex 54.4139 108.206 60
      vertex 58.7021 106.88 60
      vertex 63.5065 118.304 60
    endloop
  endfacet
  facet normal 0 0 1
    outer loop
      vertex 58.7021 106.88 60
      vertex 54.4139 108.206 60
      vertex 58.6421 106.797 60
    endloop
  endfacet
  facet normal 0 0 1
    outer loop
      vertex 54.4139 108.206 60
      vertex 52.3195 95.8465 60
      vertex 58.6421 106.797 60
    endloop
  endfacet
  facet normal -0 0 1
    outer loop
      vertex 47.6195 96.4379 60
      vertex 52.3195 95.8465 60
      vertex 54.4139 108.206 60
    endloop
  endfacet
  facet normal 0 0 1
    outer loop
      vertex 52.3195 95.8465 60
      vertex 47.6195 96.4379 60
      vertex 52.278 95.7532 60
    endloop
  endfacet
  facet normal 0 0 1
    outer loop
      vertex 52.278 95.7532 60
      vertex 47.6195 96.4379 60
      vertex 48.3704 83.7268 60
    endloop
  endfacet
  facet normal 0 0 1
    outer loop
      vertex 43.4204 83.5143 60
      vertex 48.3704 83.7268 60
      vertex 47.6195 96.4379 60
    endloop
  endfacet
  facet normal 0 0 1
    outer loop
      vertex 48.3704 83.7268 60
      vertex 43.4204 83.5143 60
      vertex 48.3492 83.627 60
    endloop
  endfacet
  facet normal 0 0 1
    outer loop
      vertex 47.0274 71.051 60
      vertex 46.981 70.4773 60
      vertex 47.0274 70.4773 60
    endloop
  endfacet
  facet normal 0 0 1
    outer loop
      vertex 48.3492 83.627 60
      vertex 43.4204 83.5143 60
      vertex 47.0274 71.051 60
    endloop
  endfacet
  facet normal 0 0 1
    outer loop
      vertex 42 70 60
      vertex 46.9803 70.2798 60
      vertex 46.981 70.4773 60
    endloop
  endfacet
  facet normal 0 0 1
    outer loop
      vertex 42 70 60
      vertex 47.0274 71.051 60
      vertex 43.4204 83.5143 60
    endloop
  endfacet
  facet normal 0 0 1
    outer loop
      vertex 47.0274 71.051 60
      vertex 42 70 60
      vertex 46.981 70.4773 60
    endloop
  endfacet
  facet normal 0 0 1
    outer loop
      vertex 46.9803 70.2798 60
      vertex 42 70 60
      vertex 42.0628 69.4029 60
    endloop
  endfacet
  facet normal 0 0 1
    outer loop
      vertex 46.9803 70.2798 60
      vertex 42.0628 69.4029 60
      vertex 42 69.2798 60
    endloop
  endfacet
  facet normal 0 0 1
    outer loop
      vertex 46.9803 70.2798 60
      vertex 42 69.2798 60
      vertex 46.7896 64.0653 60
    endloop
  endfacet
  facet normal 0 0 1
    outer loop
      vertex 46.7896 64.0653 60
      vertex 42 63 60
      vertex 46.1682 62.221 60
    endloop
  endfacet
  facet normal -0 0 1
    outer loop
      vertex 41.427 61.2366 60
      vertex 45.1648 60.5534 60
      vertex 42 63 60
    endloop
  endfacet
  facet normal 0 0 1
    outer loop
      vertex 42 63 60
      vertex 46.7896 64.0653 60
      vertex 42 69.2798 60
    endloop
  endfacet
  facet normal 0 0 1
    outer loop
      vertex 172 0.720245 60
      vertex 171.525 0 60
      vertex 171.654 0.0421143 60
    endloop
  endfacet
  facet normal -0 0 1
    outer loop
      vertex 168.973 71.0509 60
      vertex 172 70 60
      vertex 170.58 83.5143 60
    endloop
  endfacet
  facet normal 0 0 1
    outer loop
      vertex 172 70 60
      vertex 169 70.3498 60
      vertex 171.962 69.641 60
    endloop
  endfacet
  facet normal 0 0 1
    outer loop
      vertex 172 69.5248 60
      vertex 169 70.3498 60
      vertex 169 5 60
    endloop
  endfacet
  facet normal 0 0 1
    outer loop
      vertex 172 69.5248 60
      vertex 169 5 60
      vertex 171.525 0 60
    endloop
  endfacet
  facet normal -0 0 1
    outer loop
      vertex 5 5 60
      vertex 171.525 0 60
      vertex 169 5 60
    endloop
  endfacet
  facet normal 0 0 1
    outer loop
      vertex 5.32973 55.2514 60
      vertex 1.59375 57.4035 60
      vertex 5.18527 54.8465 60
    endloop
  endfacet
  facet normal 0 0 1
    outer loop
      vertex 5.18527 54.8465 60
      vertex 1.59375 57.4035 60
      vertex 5.10956 54.6709 60
    endloop
  endfacet
  facet normal -0 0 1
    outer loop
      vertex 0.777695 56.1337 60
      vertex 5.10956 54.6709 60
      vertex 1.59375 57.4035 60
    endloop
  endfacet
  facet normal -0 0 1
    outer loop
      vertex 0.568192 55.612 60
      vertex 5.10956 54.6709 60
      vertex 0.777695 56.1337 60
    endloop
  endfacet
  facet normal 0 0 1
    outer loop
      vertex 5.10956 54.6709 60
      vertex 0.568192 55.612 60
      vertex 5 54.2146 60
    endloop
  endfacet
  facet normal 0 0 1
    outer loop
      vertex 5 5 60
      vertex 0.720245 0 60
      vertex 171.525 0 60
    endloop
  endfacet
  facet normal 0 0 1
    outer loop
      vertex 5 54.2146 60
      vertex 0.309784 54.8878 60
      vertex 0 54.2798 60
    endloop
  endfacet
  facet normal 0 0 1
    outer loop
      vertex 0.568192 55.612 60
      vertex 0.777695 56.1337 60
      vertex 0.575516 55.6456 60
    endloop
  endfacet
  facet normal 0 0 1
    outer loop
      vertex 5 54.2146 60
      vertex 0.568192 55.612 60
      vertex 0.309784 54.8878 60
    endloop
  endfacet
  facet normal 0 0 1
    outer loop
      vertex 5 54.2146 60
      vertex 0 54.2798 60
      vertex 5 5 60
    endloop
  endfacet
  facet normal 0 0 1
    outer loop
      vertex 0 0.475159 60
      vertex 5 5 60
      vertex 0 54.2798 60
    endloop
  endfacet
  facet normal 0 0 1
    outer loop
      vertex 5 5 60
      vertex 0 0.475159 60
      vertex 0.720245 0 60
    endloop
  endfacet
  facet normal 0 0 1
    outer loop
      vertex 0.720245 0 60
      vertex 0 0.475159 60
      vertex 0.0421143 0.345535 60
    endloop
  endfacet
  facet normal 0 0 1
    outer loop
      vertex 169 70.3498 60
      vertex 172 69.5248 60
      vertex 171.962 69.641 60
    endloop
  endfacet
  facet normal 0 0 1
    outer loop
      vertex 171.525 0 60
      vertex 172 0.720245 60
      vertex 172 69.5248 60
    endloop
  endfacet
  facet normal 0 0 1
    outer loop
      vertex 172 70 60
      vertex 168.973 70.6978 60
      vertex 169 70.3498 60
    endloop
  endfacet
  facet normal -0 0 1
    outer loop
      vertex 46.9803 70.2798 60
      vertex 47 66 60
      vertex 47 70.2798 60
    endloop
  endfacet
  facet normal 0 0 1
    outer loop
      vertex 47 66 60
      vertex 46.9803 70.2798 60
      vertex 46.7896 64.0653 60
    endloop
  endfacet
  facet normal 0 0 1
    outer loop
      vertex 46.1682 62.221 60
      vertex 42 63 60
      vertex 45.1648 60.5534 60
    endloop
  endfacet
  facet normal 0 0 1
    outer loop
      vertex 45.1648 60.5534 60
      vertex 41.427 61.2366 60
      vertex 43.8265 59.1405 60
    endloop
  endfacet
  facet normal 0 0 1
    outer loop
      vertex 43.8265 59.1405 60
      vertex 41.427 61.2366 60
      vertex 42.2157 58.0484 60
    endloop
  endfacet
  facet normal -0 0 1
    outer loop
      vertex 39 60 60
      vertex 42.2157 58.0484 60
      vertex 41.427 61.2366 60
    endloop
  endfacet
  facet normal 0 0 1
    outer loop
      vertex 42.2157 58.0484 60
      vertex 39 60 60
      vertex 40.4078 57.328 60
    endloop
  endfacet
  facet normal 0 0 1
    outer loop
      vertex 39 60 60
      vertex 38 57 60
      vertex 40.4078 57.328 60
    endloop
  endfacet
  facet normal 0 0 1
    outer loop
      vertex 39 60 60
      vertex 8.28615 57 60
      vertex 38 57 60
    endloop
  endfacet
  facet normal -0 0 1
    outer loop
      vertex 7.10709 60 60
      vertex 8.28615 57 60
      vertex 39 60 60
    endloop
  endfacet
  facet normal 0 0 1
    outer loop
      vertex 7.10709 60 60
      vertex 7.16643 56.839 60
      vertex 8.28615 57 60
    endloop
  endfacet
  facet normal -0 0 1
    outer loop
      vertex 6.89403 59.9848 60
      vertex 7.16643 56.839 60
      vertex 7.10709 60 60
    endloop
  endfacet
  facet normal -0 0 1
    outer loop
      vertex 5.2402 59.747 60
      vertex 7.16643 56.839 60
      vertex 6.89403 59.9848 60
    endloop
  endfacet
  facet normal 0 0 1
    outer loop
      vertex 7.16643 56.839 60
      vertex 5.2402 59.747 60
      vertex 6.40028 56.4891 60
    endloop
  endfacet
  facet normal -0 0 1
    outer loop
      vertex 4.83273 59.6273 60
      vertex 6.40028 56.4891 60
      vertex 5.2402 59.747 60
    endloop
  endfacet
  facet normal -0 0 1
    outer loop
      vertex 3.41071 58.9779 60
      vertex 6.40028 56.4891 60
      vertex 4.83273 59.6273 60
    endloop
  endfacet
  facet normal 0 0 1
    outer loop
      vertex 6.40028 56.4891 60
      vertex 3.41071 58.9779 60
      vertex 5.76385 55.9377 60
    endloop
  endfacet
  facet normal -0 0 1
    outer loop
      vertex 3.05334 58.7483 60
      vertex 5.76385 55.9377 60
      vertex 3.41071 58.9779 60
    endloop
  endfacet
  facet normal 0 0 1
    outer loop
      vertex 5.76385 55.9377 60
      vertex 3.05334 58.7483 60
      vertex 5.35997 55.3092 60
    endloop
  endfacet
  facet normal -0 0 1
    outer loop
      vertex 1.8719 57.7245 60
      vertex 5.35997 55.3092 60
      vertex 3.05334 58.7483 60
    endloop
  endfacet
  facet normal -0 0 1
    outer loop
      vertex 1.59375 57.4035 60
      vertex 5.32973 55.2514 60
      vertex 1.8719 57.7245 60
    endloop
  endfacet
  facet normal 0 0 1
    outer loop
      vertex 5.35997 55.3092 60
      vertex 1.8719 57.7245 60
      vertex 5.32973 55.2514 60
    endloop
  endfacet
  facet normal 1 -0 0
    outer loop
      vertex 5 5 60
      vertex 5 54.2146 10
      vertex 5 54.2146 60
    endloop
  endfacet
  facet normal 1 0 0
    outer loop
      vertex 5 54.2146 10
      vertex 5 5 60
      vertex 5 5 10
    endloop
  endfacet
  facet normal 0.972364 -0.23347 0
    outer loop
      vertex 5 54.2146 60
      vertex 5.10956 54.6709 10
      vertex 5.10956 54.6709 60
    endloop
  endfacet
  facet normal 0.972364 -0.23347 0
    outer loop
      vertex 5.10956 54.6709 10
      vertex 5 54.2146 60
      vertex 5 54.2146 10
    endloop
  endfacet
  facet normal 0.918285 -0.395919 0
    outer loop
      vertex 5.10956 54.6709 60
      vertex 5.18527 54.8465 10
      vertex 5.18527 54.8465 60
    endloop
  endfacet
  facet normal 0.918285 -0.395919 0
    outer loop
      vertex 5.18527 54.8465 10
      vertex 5.10956 54.6709 60
      vertex 5.10956 54.6709 10
    endloop
  endfacet
  facet normal 0.94185 -0.336033 0
    outer loop
      vertex 5.18527 54.8465 60
      vertex 5.32973 55.2514 10
      vertex 5.32973 55.2514 60
    endloop
  endfacet
  facet normal 0.94185 -0.336033 0
    outer loop
      vertex 5.32973 55.2514 10
      vertex 5.18527 54.8465 60
      vertex 5.18527 54.8465 10
    endloop
  endfacet
  facet normal 0.886059 -0.463572 0
    outer loop
      vertex 5.32973 55.2514 60
      vertex 5.35997 55.3092 10
      vertex 5.35997 55.3092 60
    endloop
  endfacet
  facet normal 0.886059 -0.463572 0
    outer loop
      vertex 5.35997 55.3092 10
      vertex 5.32973 55.2514 60
      vertex 5.32973 55.2514 10
    endloop
  endfacet
  facet normal 0.841273 -0.54061 0
    outer loop
      vertex 5.35997 55.3092 60
      vertex 5.76385 55.9377 10
      vertex 5.76385 55.9377 60
    endloop
  endfacet
  facet normal 0.841273 -0.54061 0
    outer loop
      vertex 5.76385 55.9377 10
      vertex 5.35997 55.3092 60
      vertex 5.35997 55.3092 10
    endloop
  endfacet
  facet normal 0.654813 -0.755791 0
    outer loop
      vertex 5.76385 55.9377 10
      vertex 6.40028 56.4891 60
      vertex 5.76385 55.9377 60
    endloop
  endfacet
  facet normal 0.654813 -0.755791 0
    outer loop
      vertex 6.40028 56.4891 60
      vertex 5.76385 55.9377 10
      vertex 6.40028 56.4891 10
    endloop
  endfacet
  facet normal 0.415426 -0.909627 0
    outer loop
      vertex 6.40028 56.4891 10
      vertex 7.16643 56.839 60
      vertex 6.40028 56.4891 60
    endloop
  endfacet
  facet normal 0.415426 -0.909627 0
    outer loop
      vertex 7.16643 56.839 60
      vertex 6.40028 56.4891 10
      vertex 7.16643 56.839 10
    endloop
  endfacet
  facet normal 0.142322 -0.98982 0
    outer loop
      vertex 7.16643 56.839 10
      vertex 8.28615 57 60
      vertex 7.16643 56.839 60
    endloop
  endfacet
  facet normal 0.142322 -0.98982 0
    outer loop
      vertex 8.28615 57 60
      vertex 7.16643 56.839 10
      vertex 8.28615 57 10
    endloop
  endfacet
  facet normal 0 -1 0
    outer loop
      vertex 8.28615 57 10
      vertex 38 57 60
      vertex 8.28615 57 60
    endloop
  endfacet
  facet normal 0 -1 -0
    outer loop
      vertex 38 57 60
      vertex 8.28615 57 10
      vertex 38 57 10
    endloop
  endfacet
  facet normal 0.134977 -0.990849 0
    outer loop
      vertex 38 57 10
      vertex 40.4078 57.328 60
      vertex 38 57 60
    endloop
  endfacet
  facet normal 0.134977 -0.990849 0
    outer loop
      vertex 40.4078 57.328 60
      vertex 38 57 10
      vertex 40.4078 57.328 10
    endloop
  endfacet
  facet normal 0.370168 -0.928965 0
    outer loop
      vertex 40.4078 57.328 10
      vertex 42.2157 58.0484 60
      vertex 40.4078 57.328 60
    endloop
  endfacet
  facet normal 0.370168 -0.928965 0
    outer loop
      vertex 42.2157 58.0484 60
      vertex 40.4078 57.328 10
      vertex 42.2157 58.0484 10
    endloop
  endfacet
  facet normal 0.56117 -0.827701 0
    outer loop
      vertex 42.2157 58.0484 10
      vertex 43.8265 59.1405 60
      vertex 42.2157 58.0484 60
    endloop
  endfacet
  facet normal 0.56117 -0.827701 0
    outer loop
      vertex 43.8265 59.1405 60
      vertex 42.2157 58.0484 10
      vertex 43.8265 59.1405 10
    endloop
  endfacet
  facet normal 0.726013 -0.687681 0
    outer loop
      vertex 43.8265 59.1405 60
      vertex 45.1648 60.5534 10
      vertex 45.1648 60.5534 60
    endloop
  endfacet
  facet normal 0.726013 -0.687681 0
    outer loop
      vertex 45.1648 60.5534 10
      vertex 43.8265 59.1405 60
      vertex 43.8265 59.1405 10
    endloop
  endfacet
  facet normal 0.856848 -0.515568 0
    outer loop
      vertex 45.1648 60.5534 60
      vertex 46.1682 62.221 10
      vertex 46.1682 62.221 60
    endloop
  endfacet
  facet normal 0.856848 -0.515568 0
    outer loop
      vertex 46.1682 62.221 10
      vertex 45.1648 60.5534 60
      vertex 45.1648 60.5534 10
    endloop
  endfacet
  facet normal 0.947656 -0.319294 0
    outer loop
      vertex 46.1682 62.221 60
      vertex 46.7896 64.0653 10
      vertex 46.7896 64.0653 60
    endloop
  endfacet
  facet normal 0.947656 -0.319294 0
    outer loop
      vertex 46.7896 64.0653 10
      vertex 46.1682 62.221 60
      vertex 46.1682 62.221 10
    endloop
  endfacet
  facet normal 0.994139 -0.108113 0
    outer loop
      vertex 46.7896 64.0653 60
      vertex 47 66 10
      vertex 47 66 60
    endloop
  endfacet
  facet normal 0.994139 -0.108113 0
    outer loop
      vertex 47 66 10
      vertex 46.7896 64.0653 60
      vertex 46.7896 64.0653 10
    endloop
  endfacet
  facet normal 1 -0 0
    outer loop
      vertex 47 66 60
      vertex 47 70.2798 10
      vertex 47 70.2798 60
    endloop
  endfacet
  facet normal 1 0 0
    outer loop
      vertex 47 70.2798 10
      vertex 47 66 60
      vertex 47 66 10
    endloop
  endfacet
  facet normal 0 1 -0
    outer loop
      vertex 47 70.2798 10
      vertex 46.9803 70.2798 60
      vertex 47 70.2798 60
    endloop
  endfacet
  facet normal 0 1 0
    outer loop
      vertex 46.9803 70.2798 60
      vertex 47 70.2798 10
      vertex 46.9803 70.2798 10
    endloop
  endfacet
  facet normal 0.999994 -0.00354428 0
    outer loop
      vertex 46.9803 70.2798 60
      vertex 46.981 70.4773 10
      vertex 46.981 70.4773 60
    endloop
  endfacet
  facet normal 0.999994 -0.00354428 0
    outer loop
      vertex 46.981 70.4773 10
      vertex 46.9803 70.2798 60
      vertex 46.9803 70.2798 10
    endloop
  endfacet
  facet normal 0 -1 0
    outer loop
      vertex 46.981 70.4773 10
      vertex 47.0274 70.4773 60
      vertex 46.981 70.4773 60
    endloop
  endfacet
  facet normal 0 -1 -0
    outer loop
      vertex 47.0274 70.4773 60
      vertex 46.981 70.4773 10
      vertex 47.0274 70.4773 10
    endloop
  endfacet
  facet normal 1 -0 0
    outer loop
      vertex 47.0274 70.4773 60
      vertex 47.0274 71.051 10
      vertex 47.0274 71.051 60
    endloop
  endfacet
  facet normal 1 0 0
    outer loop
      vertex 47.0274 71.051 10
      vertex 47.0274 70.4773 60
      vertex 47.0274 70.4773 10
    endloop
  endfacet
  facet normal 0.994522 -0.104529 0
    outer loop
      vertex 47.0274 71.051 60
      vertex 48.3492 83.627 10
      vertex 48.3492 83.627 60
    endloop
  endfacet
  facet normal 0.994522 -0.104529 0
    outer loop
      vertex 48.3492 83.627 10
      vertex 47.0274 71.051 60
      vertex 47.0274 71.051 10
    endloop
  endfacet
  facet normal 0.978174 -0.207788 0
    outer loop
      vertex 48.3492 83.627 60
      vertex 48.3704 83.7268 10
      vertex 48.3704 83.7268 60
    endloop
  endfacet
  facet normal 0.978174 -0.207788 0
    outer loop
      vertex 48.3704 83.7268 10
      vertex 48.3492 83.627 60
      vertex 48.3492 83.627 10
    endloop
  endfacet
  facet normal 0.951057 -0.309016 0
    outer loop
      vertex 48.3704 83.7268 60
      vertex 52.278 95.7532 10
      vertex 52.278 95.7532 60
    endloop
  endfacet
  facet normal 0.951057 -0.309016 0
    outer loop
      vertex 52.278 95.7532 10
      vertex 48.3704 83.7268 60
      vertex 48.3704 83.7268 10
    endloop
  endfacet
  facet normal 0.91369 -0.406411 0
    outer loop
      vertex 52.278 95.7532 60
      vertex 52.3195 95.8465 10
      vertex 52.3195 95.8465 60
    endloop
  endfacet
  facet normal 0.91369 -0.406411 0
    outer loop
      vertex 52.3195 95.8465 10
      vertex 52.278 95.7532 60
      vertex 52.278 95.7532 10
    endloop
  endfacet
  facet normal 0.866014 -0.500019 0
    outer loop
      vertex 52.3195 95.8465 60
      vertex 58.6421 106.797 10
      vertex 58.6421 106.797 60
    endloop
  endfacet
  facet normal 0.866014 -0.500019 0
    outer loop
      vertex 58.6421 106.797 10
      vertex 52.3195 95.8465 60
      vertex 52.3195 95.8465 10
    endloop
  endfacet
  facet normal 0.810422 -0.585847 0
    outer loop
      vertex 58.6421 106.797 60
      vertex 58.7021 106.88 10
      vertex 58.7021 106.88 60
    endloop
  endfacet
  facet normal 0.810422 -0.585847 0
    outer loop
      vertex 58.7021 106.88 10
      vertex 58.6421 106.797 60
      vertex 58.6421 106.797 10
    endloop
  endfacet
  facet normal 0.743137 -0.669139 0
    outer loop
      vertex 58.7021 106.88 60
      vertex 67.1634 116.277 10
      vertex 67.1634 116.277 60
    endloop
  endfacet
  facet normal 0.743137 -0.669139 0
    outer loop
      vertex 67.1634 116.277 10
      vertex 58.7021 106.88 60
      vertex 58.7021 106.88 10
    endloop
  endfacet
  facet normal 0.672673 -0.73994 0
    outer loop
      vertex 67.1634 116.277 10
      vertex 67.2393 116.346 60
      vertex 67.1634 116.277 60
    endloop
  endfacet
  facet normal 0.672673 -0.73994 0
    outer loop
      vertex 67.2393 116.346 60
      vertex 67.1634 116.277 10
      vertex 67.2393 116.346 10
    endloop
  endfacet
  facet normal 0.58775 -0.809042 0
    outer loop
      vertex 67.2393 116.346 10
      vertex 77.4695 123.778 60
      vertex 67.2393 116.346 60
    endloop
  endfacet
  facet normal 0.58775 -0.809042 0
    outer loop
      vertex 77.4695 123.778 60
      vertex 67.2393 116.346 10
      vertex 77.4695 123.778 10
    endloop
  endfacet
  facet normal 0.499722 -0.866186 0
    outer loop
      vertex 77.4695 123.778 10
      vertex 77.5579 123.829 60
      vertex 77.4695 123.778 60
    endloop
  endfacet
  facet normal 0.499722 -0.866186 0
    outer loop
      vertex 77.5579 123.829 60
      vertex 77.4695 123.778 10
      vertex 77.5579 123.829 10
    endloop
  endfacet
  facet normal 0.406784 -0.913524 0
    outer loop
      vertex 77.5579 123.829 10
      vertex 89.1099 128.973 60
      vertex 77.5579 123.829 60
    endloop
  endfacet
  facet normal 0.406784 -0.913524 0
    outer loop
      vertex 89.1099 128.973 60
      vertex 77.5579 123.829 10
      vertex 89.1099 128.973 10
    endloop
  endfacet
  facet normal 0.304704 -0.952447 0
    outer loop
      vertex 89.1099 128.973 10
      vertex 89.2068 129.004 60
      vertex 89.1099 128.973 60
    endloop
  endfacet
  facet normal 0.304704 -0.952447 0
    outer loop
      vertex 89.2068 129.004 60
      vertex 89.1099 128.973 10
      vertex 89.2068 129.004 10
    endloop
  endfacet
  facet normal 0.2079 -0.97815 0
    outer loop
      vertex 89.2068 129.004 10
      vertex 101.576 131.633 60
      vertex 89.2068 129.004 60
    endloop
  endfacet
  facet normal 0.2079 -0.97815 0
    outer loop
      vertex 101.576 131.633 60
      vertex 89.2068 129.004 10
      vertex 101.576 131.633 10
    endloop
  endfacet
  facet normal 0.108271 -0.994121 0
    outer loop
      vertex 101.576 131.633 10
      vertex 101.677 131.644 60
      vertex 101.576 131.633 60
    endloop
  endfacet
  facet normal 0.108271 -0.994121 0
    outer loop
      vertex 101.677 131.644 60
      vertex 101.576 131.633 10
      vertex 101.677 131.644 10
    endloop
  endfacet
  facet normal 0 -1 0
    outer loop
      vertex 101.677 131.644 10
      vertex 114.323 131.644 60
      vertex 101.677 131.644 60
    endloop
  endfacet
  facet normal 0 -1 -0
    outer loop
      vertex 114.323 131.644 60
      vertex 101.677 131.644 10
      vertex 114.323 131.644 10
    endloop
  endfacet
  facet normal -0.108271 -0.994121 0
    outer loop
      vertex 114.323 131.644 10
      vertex 114.424 131.633 60
      vertex 114.323 131.644 60
    endloop
  endfacet
  facet normal -0.108271 -0.994121 -0
    outer loop
      vertex 114.424 131.633 60
      vertex 114.323 131.644 10
      vertex 114.424 131.633 10
    endloop
  endfacet
  facet normal -0.207903 -0.978149 0
    outer loop
      vertex 114.424 131.633 10
      vertex 126.793 129.004 60
      vertex 114.424 131.633 60
    endloop
  endfacet
  facet normal -0.207903 -0.978149 -0
    outer loop
      vertex 126.793 129.004 60
      vertex 114.424 131.633 10
      vertex 126.793 129.004 10
    endloop
  endfacet
  facet normal -0.304419 -0.952538 0
    outer loop
      vertex 126.793 129.004 10
      vertex 126.89 128.973 60
      vertex 126.793 129.004 60
    endloop
  endfacet
  facet normal -0.304419 -0.952538 -0
    outer loop
      vertex 126.89 128.973 60
      vertex 126.793 129.004 10
      vertex 126.89 128.973 10
    endloop
  endfacet
  facet normal -0.406784 -0.913524 0
    outer loop
      vertex 126.89 128.973 10
      vertex 138.442 123.829 60
      vertex 126.89 128.973 60
    endloop
  endfacet
  facet normal -0.406784 -0.913524 -0
    outer loop
      vertex 138.442 123.829 60
      vertex 126.89 128.973 10
      vertex 138.442 123.829 10
    endloop
  endfacet
  facet normal -0.501424 -0.865202 0
    outer loop
      vertex 138.442 123.829 10
      vertex 138.53 123.778 60
      vertex 138.442 123.829 60
    endloop
  endfacet
  facet normal -0.501424 -0.865202 -0
    outer loop
      vertex 138.53 123.778 60
      vertex 138.442 123.829 10
      vertex 138.53 123.778 10
    endloop
  endfacet
  facet normal -0.58772 -0.809064 0
    outer loop
      vertex 138.53 123.778 10
      vertex 148.761 116.346 60
      vertex 138.53 123.778 60
    endloop
  endfacet
  facet normal -0.58772 -0.809064 -0
    outer loop
      vertex 148.761 116.346 60
      vertex 138.53 123.778 10
      vertex 148.761 116.346 10
    endloop
  endfacet
  facet normal -0.672188 -0.740381 0
    outer loop
      vertex 148.761 116.346 10
      vertex 148.837 116.277 60
      vertex 148.761 116.346 60
    endloop
  endfacet
  facet normal -0.672188 -0.740381 -0
    outer loop
      vertex 148.837 116.277 60
      vertex 148.761 116.346 10
      vertex 148.837 116.277 10
    endloop
  endfacet
  facet normal -0.743149 -0.669126 0
    outer loop
      vertex 157.298 106.88 10
      vertex 148.837 116.277 60
      vertex 148.837 116.277 10
    endloop
  endfacet
  facet normal -0.743149 -0.669126 0
    outer loop
      vertex 148.837 116.277 60
      vertex 157.298 106.88 10
      vertex 157.298 106.88 60
    endloop
  endfacet
  facet normal -0.810422 -0.585847 0
    outer loop
      vertex 157.358 106.797 10
      vertex 157.298 106.88 60
      vertex 157.298 106.88 10
    endloop
  endfacet
  facet normal -0.810422 -0.585847 0
    outer loop
      vertex 157.298 106.88 60
      vertex 157.358 106.797 10
      vertex 157.358 106.797 60
    endloop
  endfacet
  facet normal -0.866035 -0.499984 0
    outer loop
      vertex 163.68 95.8465 10
      vertex 157.358 106.797 60
      vertex 157.358 106.797 10
    endloop
  endfacet
  facet normal -0.866035 -0.499984 0
    outer loop
      vertex 157.358 106.797 60
      vertex 163.68 95.8465 10
      vertex 163.68 95.8465 60
    endloop
  endfacet
  facet normal -0.911867 -0.410487 0
    outer loop
      vertex 163.722 95.7532 10
      vertex 163.68 95.8465 60
      vertex 163.68 95.8465 10
    endloop
  endfacet
  facet normal -0.911867 -0.410487 0
    outer loop
      vertex 163.68 95.8465 60
      vertex 163.722 95.7532 10
      vertex 163.722 95.7532 60
    endloop
  endfacet
  facet normal -0.951048 -0.309045 0
    outer loop
      vertex 167.63 83.7268 10
      vertex 163.722 95.7532 60
      vertex 163.722 95.7532 10
    endloop
  endfacet
  facet normal -0.951048 -0.309045 0
    outer loop
      vertex 163.722 95.7532 60
      vertex 167.63 83.7268 10
      vertex 167.63 83.7268 60
    endloop
  endfacet
  facet normal -0.978571 -0.205912 0
    outer loop
      vertex 167.651 83.627 10
      vertex 167.63 83.7268 60
      vertex 167.63 83.7268 10
    endloop
  endfacet
  facet normal -0.978571 -0.205912 0
    outer loop
      vertex 167.63 83.7268 60
      vertex 167.651 83.627 10
      vertex 167.651 83.627 60
    endloop
  endfacet
  facet normal -0.99452 -0.104544 0
    outer loop
      vertex 168.973 71.0509 10
      vertex 167.651 83.627 60
      vertex 167.651 83.627 10
    endloop
  endfacet
  facet normal -0.99452 -0.104544 0
    outer loop
      vertex 167.651 83.627 60
      vertex 168.973 71.0509 10
      vertex 168.973 71.0509 60
    endloop
  endfacet
  facet normal -1 0 0
    outer loop
      vertex 168.973 70.6978 10
      vertex 168.973 71.0509 60
      vertex 168.973 71.0509 10
    endloop
  endfacet
  facet normal -1 -0 0
    outer loop
      vertex 168.973 71.0509 60
      vertex 168.973 70.6978 10
      vertex 168.973 70.6978 60
    endloop
  endfacet
  facet normal -0.997004 -0.0773537 0
    outer loop
      vertex 169 70.3498 10
      vertex 168.973 70.6978 60
      vertex 168.973 70.6978 10
    endloop
  endfacet
  facet normal -0.997004 -0.0773537 0
    outer loop
      vertex 168.973 70.6978 60
      vertex 169 70.3498 10
      vertex 169 70.3498 60
    endloop
  endfacet
  facet normal -1 0 0
    outer loop
      vertex 169 5 10
      vertex 169 70.3498 60
      vertex 169 70.3498 10
    endloop
  endfacet
  facet normal -1 -0 0
    outer loop
      vertex 169 70.3498 60
      vertex 169 5 10
      vertex 169 5 60
    endloop
  endfacet
  facet normal 0 1 -0
    outer loop
      vertex 169 5 10
      vertex 5 5 60
      vertex 169 5 60
    endloop
  endfacet
  facet normal 0 1 0
    outer loop
      vertex 5 5 60
      vertex 169 5 10
      vertex 5 5 10
    endloop
  endfacet
endsolid OpenSCAD_Model
